<svg width="120" height="40" viewBox="0 0 120 40" fill="none" xmlns="http://www.w3.org/2000/svg">
<path d="M110.471 0.00025207H9.87062C9.50392 0.00025207 9.14162 0.00025207 8.77589 0.00225207C8.46974 0.00425207 8.16603 0.0100621 7.85694 0.0149521C7.18545 0.0228539 6.51554 0.0819283 5.85304 0.191662C5.19146 0.303785 4.55061 0.515168 3.95216 0.818662C3.35444 1.12472 2.80828 1.52242 2.33351 1.99732C1.85624 2.47089 1.4584 3.01827 1.15529 3.61841C0.851338 4.21736 0.640578 4.85919 0.530288 5.52173C0.418948 6.18344 0.359036 6.85277 0.351088 7.52373C0.341808 7.83033 0.340827 8.13795 0.335938 8.44459V31.5589C0.340827 31.8694 0.341808 32.1702 0.351088 32.4808C0.359038 33.1517 0.418951 33.821 0.530288 34.4827C0.640273 35.1456 0.851046 35.7878 1.15529 36.387C1.45826 36.9852 1.85616 37.5303 2.33351 38.0013C2.80648 38.4783 3.35299 38.8762 3.95216 39.18C4.55061 39.4843 5.19139 39.6969 5.85304 39.8108C6.51566 39.9196 7.18549 39.9787 7.85694 39.9876C8.16603 39.9944 8.46974 39.9983 8.77589 39.9983C9.14161 40.0003 9.50394 40.0003 9.87062 40.0003H110.471C110.83 40.0003 111.195 40.0003 111.555 39.9983C111.859 39.9983 112.172 39.9944 112.477 39.9876C113.147 39.9792 113.815 39.9201 114.477 39.8108C115.14 39.6961 115.783 39.4835 116.385 39.18C116.983 38.8761 117.529 38.4781 118.002 38.0013C118.478 37.5285 118.877 36.9837 119.184 36.387C119.486 35.7873 119.694 35.1452 119.803 34.4827C119.914 33.8209 119.976 33.1517 119.988 32.4808C119.992 32.1702 119.992 31.8694 119.992 31.5589C120 31.1956 120 30.8343 120 30.4651V9.53638C120 9.17017 120 8.80689 119.992 8.44459C119.992 8.13795 119.992 7.83033 119.988 7.52369C119.976 6.85267 119.914 6.18349 119.803 5.52169C119.694 4.85953 119.485 4.21776 119.184 3.61837C118.566 2.41545 117.588 1.43628 116.385 0.818572C115.783 0.515819 115.14 0.304492 114.477 0.191572C113.815 0.0813549 113.147 0.0222598 112.477 0.0148121C112.172 0.00993207 111.859 0.00407207 111.555 0.00212207C111.195 0.00012207 110.83 0.00012207 110.471 0.00012207V0.00025207Z" fill="#A6A6A6"/>
<path d="M8.7808 39.1252C8.47612 39.1252 8.1788 39.1213 7.87651 39.1145C7.2503 39.1064 6.62554 39.0519 6.00737 38.9514C5.43096 38.8522 4.87258 38.6675 4.35063 38.4035C3.83348 38.1418 3.36179 37.7985 2.95363 37.3869C2.53957 36.9802 2.19485 36.5085 1.93312 35.9904C1.66851 35.469 1.48539 34.9101 1.39012 34.3332C1.28725 33.7134 1.23159 33.0866 1.22362 32.4582C1.21728 32.2473 1.20898 31.5451 1.20898 31.5451V8.44458C1.20898 8.44458 1.21782 7.75317 1.22367 7.55004C1.2313 6.92273 1.28664 6.2969 1.3892 5.67797C1.48464 5.09949 1.66791 4.53899 1.93266 4.01587C2.19343 3.49819 2.53624 3.0261 2.9478 2.61792C3.35891 2.20587 3.83211 1.86085 4.35014 1.59545C4.87089 1.33234 5.42822 1.14898 6.00346 1.05151C6.62366 0.95008 7.25059 0.89524 7.87897 0.887454L8.78129 0.875244H111.55L112.463 0.887944C113.086 0.895343 113.707 0.949694 114.321 1.05053C114.902 1.14922 115.466 1.33386 115.992 1.59838C117.03 2.13323 117.875 2.97941 118.407 4.01831C118.668 4.53782 118.848 5.09375 118.942 5.66723C119.046 6.29124 119.104 6.92198 119.116 7.55444C119.119 7.83764 119.119 8.14184 119.119 8.44458C119.127 8.81958 119.127 9.17651 119.127 9.53637V30.465C119.127 30.8283 119.127 31.1828 119.119 31.5402C119.119 31.8654 119.119 32.1633 119.115 32.4699C119.104 33.0911 119.046 33.7106 118.944 34.3234C118.851 34.9045 118.669 35.4678 118.404 35.9934C118.141 36.5059 117.798 36.9735 117.389 37.3791C116.98 37.7929 116.508 38.1382 115.989 38.4016C115.464 38.6676 114.902 38.853 114.321 38.9514C113.703 39.0524 113.078 39.1069 112.452 39.1145C112.159 39.1213 111.853 39.1252 111.555 39.1252L110.471 39.1272L8.7808 39.1252Z" fill="black"/>
<path d="M25.1048 20.3014C25.1156 19.4667 25.3373 18.6483 25.7493 17.9224C26.1613 17.1964 26.7503 16.5865 27.4614 16.1493C27.0096 15.5041 26.4137 14.9732 25.7209 14.5987C25.028 14.2241 24.2574 14.0163 23.4702 13.9916C21.791 13.8154 20.163 14.9965 19.3073 14.9965C18.435 14.9965 17.1175 14.0091 15.6988 14.0383C14.7811 14.068 13.8868 14.3348 13.1029 14.8129C12.319 15.2909 11.6724 15.9639 11.2259 16.7662C9.29189 20.1146 10.7345 25.0357 12.5871 27.7423C13.514 29.0676 14.5973 30.5481 16.0147 30.4956C17.4018 30.438 17.9198 29.6111 19.5941 29.6111C21.2529 29.6111 21.7389 30.4956 23.1851 30.4622C24.6735 30.438 25.6112 29.1309 26.5056 27.793C27.1716 26.8487 27.6841 25.805 28.024 24.7005C27.1593 24.3348 26.4214 23.7226 25.9023 22.9403C25.3832 22.158 25.1058 21.2402 25.1048 20.3014Z" fill="white"/>
<path d="M22.3731 12.2116C23.1847 11.2374 23.5845 9.98518 23.4877 8.72095C22.2478 8.85117 21.1026 9.44373 20.2801 10.3806C19.8779 10.8382 19.5699 11.3707 19.3737 11.9474C19.1775 12.5242 19.0968 13.134 19.1364 13.7419C19.7565 13.7483 20.37 13.6139 20.9307 13.3488C21.4913 13.0837 21.9845 12.6949 22.3731 12.2116Z" fill="white"/>
<path d="M42.6382 27.1399H37.9048L36.7681 30.4964H34.7632L39.2466 18.0784H41.3296L45.813 30.4964H43.7739L42.6382 27.1399ZM38.395 25.5911H42.147L40.2974 20.1438H40.2456L38.395 25.5911Z" fill="white"/>
<path d="M55.4956 25.9697C55.4956 28.7832 53.9898 30.5908 51.7173 30.5908C51.1417 30.6209 50.5692 30.4883 50.0654 30.2082C49.5616 29.928 49.1469 29.5117 48.8687 29.0068H48.8257V33.4912H46.9673V21.4423H48.7661V22.9482H48.8003C49.0913 22.4457 49.513 22.0316 50.0206 21.7497C50.5283 21.4679 51.1028 21.3289 51.6831 21.3476C53.9809 21.3476 55.4956 23.164 55.4956 25.9697ZM53.5855 25.9697C53.5855 24.1367 52.6382 22.9316 51.1929 22.9316C49.773 22.9316 48.8179 24.1621 48.8179 25.9697C48.8179 27.7939 49.773 29.0156 51.1929 29.0156C52.6382 29.0156 53.5855 27.8193 53.5855 25.9697Z" fill="white"/>
<path d="M65.4605 25.9697C65.4605 28.7832 63.9546 30.5908 61.6822 30.5908C61.1065 30.6209 60.534 30.4883 60.0302 30.2081C59.5264 29.928 59.1117 29.5117 58.8335 29.0068H58.7905V33.4912H56.9321V21.4423H58.7309V22.9482H58.7651C59.0561 22.4457 59.4778 22.0315 59.9854 21.7497C60.4931 21.4679 61.0676 21.3289 61.6479 21.3476C63.9458 21.3476 65.4605 23.164 65.4605 25.9697ZM63.5503 25.9697C63.5503 24.1367 62.603 22.9316 61.1577 22.9316C59.7378 22.9316 58.7827 24.1621 58.7827 25.9697C58.7827 27.7939 59.7378 29.0156 61.1577 29.0156C62.6031 29.0156 63.5503 27.8193 63.5503 25.9697H63.5503Z" fill="white"/>
<path d="M72.0464 27.0364C72.1841 28.2679 73.3804 29.0764 75.0152 29.0764C76.5816 29.0764 77.7085 28.2678 77.7085 27.1575C77.7085 26.1936 77.0288 25.6165 75.4195 25.221L73.8101 24.8333C71.5298 24.2825 70.4712 23.2161 70.4712 21.4856C70.4712 19.343 72.3384 17.8713 74.9898 17.8713C77.6138 17.8713 79.4126 19.343 79.4732 21.4856H77.5972C77.4849 20.2463 76.4605 19.4983 74.9634 19.4983C73.4663 19.4983 72.4419 20.2551 72.4419 21.3567C72.4419 22.2346 73.0962 22.7512 74.6968 23.1467L76.0649 23.4826C78.6128 24.0852 79.6714 25.1086 79.6714 26.925C79.6714 29.2483 77.8208 30.7033 74.8774 30.7033C72.1235 30.7033 70.2642 29.2824 70.144 27.0363L72.0464 27.0364Z" fill="white"/>
<path d="M83.6821 19.3001V21.4427H85.4038V22.9144H83.6821V27.9056C83.6821 28.681 84.0269 29.0423 84.7837 29.0423C84.9881 29.0387 85.1921 29.0244 85.395 28.9993V30.4622C85.0547 30.5258 84.7089 30.5546 84.3628 30.5481C82.5298 30.5481 81.8149 29.8596 81.8149 28.1038V22.9144H80.4985V21.4427H81.8149V19.3001H83.6821Z" fill="white"/>
<path d="M86.4009 25.97C86.4009 23.1214 88.0786 21.3314 90.6948 21.3314C93.3198 21.3314 94.9897 23.1214 94.9897 25.97C94.9897 28.8265 93.3286 30.6087 90.6948 30.6087C88.062 30.6087 86.4009 28.8265 86.4009 25.97ZM93.0962 25.97C93.0962 24.0159 92.2007 22.8626 90.6948 22.8626C89.189 22.8626 88.2944 24.0247 88.2944 25.97C88.2944 27.9319 89.189 29.0765 90.6948 29.0765C92.2007 29.0765 93.0961 27.9319 93.0961 25.97H93.0962Z" fill="white"/>
<path d="M96.522 21.4423H98.2944V22.9833H98.3374C98.4574 22.502 98.7393 22.0766 99.1359 21.7788C99.5325 21.4809 100.02 21.3286 100.515 21.3475C100.729 21.3468 100.943 21.37 101.152 21.4169V23.1551C100.882 23.0725 100.599 23.0346 100.317 23.0428C100.047 23.0319 99.7778 23.0795 99.5279 23.1824C99.2781 23.2853 99.0535 23.441 98.8695 23.6389C98.6855 23.8368 98.5465 24.0721 98.4621 24.3288C98.3777 24.5855 98.3498 24.8574 98.3804 25.1258V30.496H96.522L96.522 21.4423Z" fill="white"/>
<path d="M109.72 27.8372C109.47 29.4808 107.87 30.6087 105.822 30.6087C103.188 30.6087 101.553 28.844 101.553 26.013C101.553 23.1732 103.197 21.3314 105.744 21.3314C108.249 21.3314 109.824 23.0521 109.824 25.7972V26.4339H103.429V26.5462C103.4 26.8794 103.441 27.2151 103.552 27.5309C103.662 27.8467 103.838 28.1355 104.068 28.3781C104.299 28.6206 104.578 28.8114 104.888 28.9377C105.197 29.064 105.53 29.123 105.865 29.1106C106.304 29.1518 106.745 29.0501 107.121 28.8206C107.498 28.5912 107.791 28.2463 107.956 27.8372L109.72 27.8372ZM103.438 25.1351H107.964C107.981 24.8355 107.936 24.5357 107.831 24.2545C107.726 23.9732 107.565 23.7167 107.356 23.5009C107.148 23.2852 106.897 23.1148 106.619 23.0006C106.342 22.8864 106.044 22.8308 105.744 22.8372C105.441 22.8354 105.141 22.8936 104.861 23.0083C104.581 23.123 104.326 23.2921 104.112 23.5057C103.898 23.7194 103.728 23.9733 103.612 24.253C103.496 24.5326 103.437 24.8324 103.438 25.1351V25.1351Z" fill="white"/>
<path d="M38.1621 8.73077C38.5517 8.70281 38.9427 8.76167 39.3068 8.9031C39.6709 9.04454 39.9991 9.26502 40.2677 9.54864C40.5363 9.83227 40.7386 10.172 40.86 10.5432C40.9814 10.9145 41.0188 11.3081 40.9697 11.6956C40.9697 13.6019 39.9395 14.6976 38.1621 14.6976H36.0068V8.73077H38.1621ZM36.9336 13.8538H38.0586C38.337 13.8704 38.6156 13.8248 38.8741 13.7201C39.1327 13.6155 39.3646 13.4546 39.5531 13.249C39.7416 13.0435 39.8819 12.7984 39.9638 12.5318C40.0456 12.2652 40.067 11.9837 40.0264 11.7078C40.0641 11.4329 40.0405 11.1532 39.9574 10.8885C39.8743 10.6238 39.7336 10.3808 39.5456 10.1769C39.3575 9.97297 39.1267 9.81317 38.8696 9.70893C38.6125 9.60469 38.3356 9.55861 38.0586 9.57398H36.9336V13.8538Z" fill="white"/>
<path d="M42.0166 12.4441C41.9883 12.1482 42.0222 11.8496 42.116 11.5675C42.2099 11.2855 42.3616 11.0261 42.5616 10.8062C42.7615 10.5862 43.0052 10.4104 43.2771 10.2901C43.5489 10.1699 43.8429 10.1077 44.1402 10.1077C44.4374 10.1077 44.7314 10.1699 45.0033 10.2901C45.2751 10.4104 45.5188 10.5862 45.7188 10.8062C45.9187 11.0261 46.0705 11.2855 46.1643 11.5675C46.2582 11.8496 46.292 12.1482 46.2637 12.4441C46.2926 12.7403 46.2591 13.0393 46.1655 13.3218C46.0719 13.6044 45.9203 13.8642 45.7203 14.0846C45.5203 14.305 45.2764 14.4811 45.0043 14.6017C44.7321 14.7222 44.4378 14.7845 44.1402 14.7845C43.8425 14.7845 43.5482 14.7222 43.2761 14.6017C43.004 14.4811 42.7601 14.305 42.5601 14.0846C42.3601 13.8642 42.2084 13.6044 42.1148 13.3218C42.0212 13.0393 41.9878 12.7403 42.0166 12.4441ZM45.3496 12.4441C45.3496 11.468 44.9112 10.8972 44.1416 10.8972C43.3692 10.8972 42.9346 11.468 42.9346 12.4441C42.9346 13.428 43.3692 13.9944 44.1416 13.9944C44.9112 13.9944 45.3496 13.4241 45.3496 12.4441H45.3496Z" fill="white"/>
<path d="M51.9092 14.6975H50.9873L50.0566 11.3811H49.9863L49.0596 14.6975H48.1465L46.9053 10.1946H47.8066L48.6133 13.6306H48.6797L49.6055 10.1946H50.458L51.3838 13.6306H51.4541L52.2568 10.1946H53.1455L51.9092 14.6975Z" fill="white"/>
<path d="M54.1895 10.1941H55.0449V10.9095H55.1113C55.224 10.6525 55.414 10.4372 55.6549 10.2934C55.8957 10.1496 56.1755 10.0845 56.4551 10.1072C56.6742 10.0907 56.8942 10.1238 57.0988 10.2039C57.3034 10.284 57.4873 10.4091 57.637 10.5699C57.7867 10.7308 57.8983 10.9232 57.9635 11.133C58.0287 11.3429 58.0458 11.5647 58.0137 11.782V14.697H57.125V12.0052C57.125 11.2815 56.8106 10.9217 56.1533 10.9217C56.0046 10.9147 55.8561 10.9401 55.718 10.9959C55.58 11.0517 55.4556 11.1367 55.3535 11.2451C55.2514 11.3535 55.1739 11.4827 55.1263 11.6238C55.0788 11.765 55.0624 11.9147 55.0781 12.0628V14.6971H54.1895L54.1895 10.1941Z" fill="white"/>
<path d="M59.4297 8.43677H60.3184V14.6975H59.4297V8.43677Z" fill="white"/>
<path d="M61.5537 12.4441C61.5254 12.1482 61.5593 11.8496 61.6532 11.5675C61.747 11.2854 61.8988 11.0261 62.0988 10.8061C62.2987 10.5861 62.5425 10.4104 62.8143 10.2901C63.0862 10.1698 63.3802 10.1077 63.6775 10.1077C63.9748 10.1077 64.2688 10.1698 64.5407 10.2901C64.8125 10.4104 65.0563 10.5861 65.2562 10.8061C65.4562 11.0261 65.608 11.2854 65.7018 11.5675C65.7957 11.8496 65.8296 12.1482 65.8013 12.4441C65.8301 12.7404 65.7966 13.0393 65.703 13.3219C65.6094 13.6044 65.4577 13.8642 65.2577 14.0846C65.0577 14.305 64.8137 14.4811 64.5416 14.6017C64.2695 14.7222 63.9751 14.7845 63.6775 14.7845C63.3799 14.7845 63.0855 14.7222 62.8134 14.6017C62.5413 14.4811 62.2974 14.305 62.0973 14.0846C61.8973 13.8642 61.7456 13.6044 61.652 13.3219C61.5584 13.0393 61.5249 12.7404 61.5537 12.4441ZM64.8867 12.4441C64.8867 11.4681 64.4482 10.8973 63.6787 10.8973C62.9063 10.8973 62.4717 11.4681 62.4717 12.4441C62.4717 13.428 62.9063 13.9944 63.6787 13.9944C64.4483 13.9944 64.8867 13.4241 64.8867 12.4441H64.8867Z" fill="white"/>
<path d="M66.7368 13.4241C66.7368 12.6135 67.3403 12.1462 68.4116 12.0798L69.6313 12.0095V11.6208C69.6313 11.1453 69.3169 10.8767 68.7095 10.8767C68.2134 10.8767 67.8696 11.0588 67.771 11.3772H66.9106C67.0015 10.6038 67.729 10.1077 68.7505 10.1077C69.8794 10.1077 70.5161 10.6697 70.5161 11.6208V14.6975H69.6606V14.0647H69.5903C69.4476 14.2917 69.2472 14.4767 69.0096 14.6009C68.772 14.7252 68.5056 14.7841 68.2378 14.7717C68.0488 14.7914 67.8577 14.7712 67.6769 14.7125C67.4962 14.6538 67.3297 14.5579 67.1883 14.4309C67.0469 14.3039 66.9337 14.1487 66.8559 13.9753C66.7781 13.8019 66.7376 13.6141 66.7368 13.4241ZM69.6313 13.0393V12.6628L68.5317 12.7331C67.9116 12.7746 67.6304 12.9856 67.6304 13.3826C67.6304 13.7878 67.9819 14.0237 68.4654 14.0237C68.607 14.038 68.7501 14.0237 68.8861 13.9816C69.0221 13.9395 69.1482 13.8705 69.257 13.7787C69.3658 13.6868 69.455 13.574 69.5193 13.447C69.5836 13.32 69.6217 13.1813 69.6313 13.0393Z" fill="white"/>
<path d="M71.6841 12.4441C71.6841 11.0213 72.4155 10.1199 73.5532 10.1199C73.8346 10.1069 74.1139 10.1743 74.3585 10.3142C74.603 10.4541 74.8026 10.6607 74.9341 10.9099H75.0005V8.43677H75.8892V14.6975H75.0376V13.9861H74.9673C74.8257 14.2336 74.6191 14.4376 74.3698 14.5761C74.1206 14.7146 73.8382 14.7822 73.5532 14.7717C72.4077 14.7718 71.6841 13.8704 71.6841 12.4441ZM72.6021 12.4441C72.6021 13.3992 73.0523 13.9739 73.8052 13.9739C74.5542 13.9739 75.0171 13.3909 75.0171 12.448C75.0171 11.5095 74.5494 10.9182 73.8052 10.9182C73.0571 10.9182 72.6021 11.4968 72.6021 12.4441H72.6021Z" fill="white"/>
<path d="M79.566 12.4441C79.5376 12.1482 79.5715 11.8496 79.6653 11.5675C79.7592 11.2855 79.9109 11.0261 80.1109 10.8062C80.3108 10.5862 80.5545 10.4104 80.8264 10.2901C81.0982 10.1699 81.3922 10.1077 81.6895 10.1077C81.9868 10.1077 82.2807 10.1699 82.5526 10.2901C82.8244 10.4104 83.0682 10.5862 83.2681 10.8062C83.468 11.0261 83.6198 11.2855 83.7136 11.5675C83.8075 11.8496 83.8413 12.1482 83.813 12.4441C83.8419 12.7403 83.8084 13.0393 83.7148 13.3218C83.6212 13.6044 83.4696 13.8642 83.2696 14.0846C83.0696 14.305 82.8257 14.4811 82.5536 14.6017C82.2814 14.7222 81.9871 14.7845 81.6895 14.7845C81.3919 14.7845 81.0975 14.7222 80.8254 14.6017C80.5533 14.4811 80.3094 14.305 80.1094 14.0846C79.9094 13.8642 79.7577 13.6044 79.6641 13.3218C79.5706 13.0393 79.5371 12.7403 79.566 12.4441ZM82.899 12.4441C82.899 11.468 82.4605 10.8972 81.691 10.8972C80.9185 10.8972 80.484 11.468 80.484 12.4441C80.484 13.428 80.9185 13.9944 81.691 13.9944C82.4605 13.9944 82.899 13.4241 82.899 12.4441Z" fill="white"/>
<path d="M85.0054 10.1941H85.8608V10.9095H85.9273C86.0399 10.6525 86.2299 10.4372 86.4708 10.2934C86.7117 10.1496 86.9914 10.0845 87.271 10.1072C87.4901 10.0907 87.7101 10.1238 87.9147 10.2039C88.1193 10.284 88.3033 10.4091 88.4529 10.5699C88.6026 10.7308 88.7142 10.9232 88.7794 11.133C88.8446 11.3429 88.8617 11.5647 88.8296 11.782V14.697H87.9409V12.0052C87.9409 11.2815 87.6265 10.9217 86.9692 10.9217C86.8205 10.9147 86.672 10.9401 86.5339 10.9959C86.3959 11.0517 86.2715 11.1367 86.1694 11.2451C86.0673 11.3535 85.9898 11.4827 85.9423 11.6238C85.8947 11.765 85.8783 11.9147 85.894 12.0628V14.6971H85.0054V10.1941Z" fill="white"/>
<path d="M93.8511 9.07349V10.2151H94.8267V10.9636H93.8511V13.2791C93.8511 13.7507 94.0454 13.9573 94.4878 13.9573C94.601 13.9569 94.7142 13.9501 94.8267 13.9368V14.677C94.6671 14.7055 94.5054 14.7207 94.3433 14.7224C93.355 14.7224 92.9614 14.3747 92.9614 13.5066V10.9636H92.2466V10.215H92.9614V9.07349H93.8511Z" fill="white"/>
<path d="M96.0405 8.43677H96.9214V10.9182H96.9917C97.1098 10.6589 97.305 10.4423 97.5507 10.298C97.7964 10.1536 98.0807 10.0885 98.3647 10.1116C98.5827 10.0997 98.8005 10.1361 99.0028 10.2181C99.2051 10.3002 99.3868 10.4259 99.5349 10.5862C99.683 10.7465 99.7939 10.9376 99.8597 11.1457C99.9255 11.3539 99.9445 11.5739 99.9155 11.7903V14.6975H99.0259V12.0095C99.0259 11.2903 98.6909 10.926 98.063 10.926C97.9103 10.9135 97.7567 10.9345 97.6129 10.9875C97.4691 11.0406 97.3387 11.1244 97.2307 11.2332C97.1227 11.3419 97.0397 11.4729 96.9877 11.6171C96.9356 11.7612 96.9157 11.915 96.9292 12.0676V14.6975H96.0406L96.0405 8.43677Z" fill="white"/>
<path d="M105.097 13.4817C104.976 13.8932 104.715 14.2492 104.358 14.4874C104.001 14.7255 103.572 14.8307 103.146 14.7844C102.849 14.7923 102.554 14.7354 102.282 14.6179C102.009 14.5004 101.766 14.325 101.568 14.1038C101.37 13.8827 101.223 13.6211 101.136 13.3373C101.049 13.0535 101.025 12.7542 101.066 12.4602C101.026 12.1653 101.051 11.8654 101.137 11.5807C101.224 11.2961 101.37 11.0333 101.567 10.8102C101.764 10.5871 102.006 10.409 102.278 10.2878C102.55 10.1666 102.844 10.1051 103.142 10.1077C104.395 10.1077 105.151 10.9637 105.151 12.3777V12.6878H101.971V12.7376C101.957 12.9028 101.978 13.0691 102.032 13.2259C102.086 13.3826 102.172 13.5264 102.285 13.6478C102.398 13.7693 102.535 13.8658 102.688 13.9312C102.84 13.9966 103.004 14.0294 103.17 14.0276C103.383 14.0531 103.598 14.0148 103.789 13.9176C103.98 13.8204 104.137 13.6687 104.242 13.4817L105.097 13.4817ZM101.971 12.0305H104.245C104.257 11.8794 104.236 11.7276 104.185 11.5849C104.134 11.4422 104.054 11.3117 103.95 11.2018C103.845 11.092 103.719 11.0052 103.579 10.947C103.439 10.8888 103.289 10.8606 103.137 10.864C102.983 10.8621 102.831 10.891 102.688 10.9489C102.546 11.0068 102.417 11.0927 102.308 11.2014C102.199 11.3101 102.114 11.4395 102.056 11.5819C101.998 11.7243 101.969 11.8768 101.971 12.0305H101.971Z" fill="white"/>
</svg>
