<svg width="270" height="49" viewBox="0 0 270 49" fill="none" xmlns="http://www.w3.org/2000/svg">
<path d="M0.400024 7.80004C0.400024 3.82359 3.62357 0.600037 7.60002 0.600037H108.4C112.376 0.600037 115.6 3.82359 115.6 7.80004C115.6 11.7765 112.376 15 108.4 15H7.60002C3.62357 15 0.400024 11.7765 0.400024 7.80004Z" fill="white"/>
<path d="M0.400024 41.4001C0.400024 37.4236 3.62357 34.2001 7.60002 34.2001H162.4C166.376 34.2001 169.6 37.4236 169.6 41.4001C169.6 45.3765 166.376 48.6001 162.4 48.6001H7.60002C3.62357 48.6001 0.400024 45.3765 0.400024 41.4001Z" fill="white"/>
<path d="M134.8 7.80004C134.8 3.82359 138.024 0.600037 142 0.600037H262C265.977 0.600037 269.2 3.82359 269.2 7.80004C269.2 11.7765 265.977 15 262 15H142C138.024 15 134.8 11.7765 134.8 7.80004Z" fill="white"/>
</svg>
