<svg width="25" height="24" viewBox="0 0 25 24" fill="none" xmlns="http://www.w3.org/2000/svg">
<path d="M16.3529 2.00024H8.28294C6.70609 2.0021 5.19437 2.62939 4.07947 3.74448C2.96456 4.85957 2.33753 6.3714 2.33594 7.94824L2.33594 16.0182C2.33779 17.5951 2.96508 19.1068 4.08017 20.2217C5.19527 21.3366 6.70709 21.9637 8.28394 21.9652H16.3539C17.9308 21.9634 19.4425 21.3361 20.5574 20.221C21.6723 19.1059 22.2993 17.5941 22.3009 16.0172V7.94724C22.2991 6.3704 21.6718 4.85868 20.5567 3.74377C19.4416 2.62887 17.9298 2.00183 16.3529 2.00024V2.00024ZM20.2929 16.0172C20.2929 16.5347 20.191 17.047 19.993 17.525C19.795 18.003 19.5048 18.4374 19.1389 18.8032C18.7731 19.1691 18.3387 19.4593 17.8607 19.6573C17.3827 19.8553 16.8703 19.9572 16.3529 19.9572H8.28294C7.23816 19.957 6.23626 19.5418 5.49758 18.8029C4.75891 18.064 4.34394 17.062 4.34394 16.0172V7.94724C4.3442 6.90246 4.75943 5.90057 5.49829 5.16189C6.23715 4.42321 7.23916 4.00824 8.28394 4.00824H16.3539C17.3987 4.00851 18.4006 4.42373 19.1393 5.1626C19.878 5.90146 20.2929 6.90346 20.2929 7.94824V16.0182V16.0172Z" fill="#E2E8F0"/>
<path d="M12.3179 6.81921C10.9493 6.82133 9.63742 7.366 8.66978 8.33382C7.70215 9.30164 7.15774 10.6136 7.15588 11.9822C7.15747 13.3511 7.70191 14.6635 8.66978 15.6316C9.63766 16.5997 10.95 17.1444 12.3189 17.1462C13.688 17.1446 15.0005 16.6001 15.9686 15.632C16.9367 14.6639 17.4813 13.3513 17.4829 11.9822C17.4808 10.6133 16.9358 9.3011 15.9676 8.33341C14.9993 7.36572 13.6868 6.82154 12.3179 6.82021V6.81921ZM12.3179 15.1382C11.4811 15.1382 10.6786 14.8058 10.087 14.2141C9.49528 13.6225 9.16288 12.82 9.16288 11.9832C9.16288 11.1465 9.49528 10.344 10.087 9.75229C10.6786 9.16061 11.4811 8.82821 12.3179 8.82821C13.1546 8.82821 13.9571 9.16061 14.5488 9.75229C15.1405 10.344 15.4729 11.1465 15.4729 11.9832C15.4729 12.82 15.1405 13.6225 14.5488 14.2141C13.9571 14.8058 13.1546 15.1382 12.3179 15.1382Z" fill="#E2E8F0"/>
<path d="M17.4919 8.09522C18.1751 8.09522 18.7289 7.54139 18.7289 6.85822C18.7289 6.17504 18.1751 5.62122 17.4919 5.62122C16.8087 5.62122 16.2549 6.17504 16.2549 6.85822C16.2549 7.54139 16.8087 8.09522 17.4919 8.09522Z" fill="#E2E8F0"/>
</svg>
