<svg width="25" height="24" viewBox="0 0 25 24" fill="none" xmlns="http://www.w3.org/2000/svg">
<path d="M15.0714 7.97205L6.03338 17.0101L5.44238 19.0261L7.41738 18.4551L16.4854 9.38705L15.0714 7.97205ZM16.6134 6.43005L18.0274 7.84405L19.3454 6.52605C19.4391 6.43229 19.4918 6.30514 19.4918 6.17255C19.4918 6.03997 19.4391 5.91282 19.3454 5.81905L18.6374 5.11205C18.5436 5.01832 18.4165 4.96566 18.2839 4.96566C18.1513 4.96566 18.0241 5.01832 17.9304 5.11205L16.6144 6.43005H16.6134ZM20.0524 3.69805L20.7594 4.40505C21.2281 4.87387 21.4913 5.50964 21.4913 6.17255C21.4913 6.83546 21.2281 7.47123 20.7594 7.94005L8.46738 20.2331L4.24738 21.4531C4.07537 21.5026 3.8932 21.5052 3.71988 21.4603C3.54657 21.4155 3.38847 21.3249 3.26209 21.1982C3.13571 21.0714 3.04568 20.913 3.0014 20.7395C2.95713 20.5661 2.96023 20.3839 3.01038 20.2121L4.25838 15.9571L16.5184 3.69705C16.9872 3.22838 17.623 2.96509 18.2859 2.96509C18.9488 2.96509 19.5846 3.22838 20.0534 3.69705L20.0524 3.69805Z" fill="#475569"/>
</svg>
