<svg width="58" height="59" viewBox="0 0 58 59" fill="none" xmlns="http://www.w3.org/2000/svg">
<path fill-rule="evenodd" clip-rule="evenodd" d="M20.2718 6.00169C21.124 6.03573 21.8353 6.6631 21.9755 7.50434L27.8628 42.8283L32.8693 25.3058C33.0861 24.5469 33.7719 24.0178 34.5609 24.0007C35.3499 23.9835 36.0581 24.4824 36.3076 25.2311L39.4974 34.8003H45.4C46.3941 34.8003 47.2 35.6061 47.2 36.6003C47.2 37.5944 46.3941 38.4003 45.4 38.4003H38.2C37.4252 38.4003 36.7374 37.9045 36.4924 37.1695L34.7323 31.8893L29.1307 51.4948C28.8995 52.304 28.1385 52.845 27.2982 52.7974C26.458 52.7498 25.7628 52.1263 25.6245 51.2962L19.8473 16.6328L14.7463 37.0368C14.5459 37.8381 13.826 38.4003 13 38.4003H5.8C4.80589 38.4003 4 37.5944 4 36.6003C4 35.6061 4.80589 34.8003 5.8 34.8003H11.5946L18.4537 7.3637C18.6606 6.53632 19.4197 5.96766 20.2718 6.00169Z" fill="white"/>
<path fill-rule="evenodd" clip-rule="evenodd" d="M49 34.8002C48.0059 34.8002 47.2 35.6061 47.2 36.6002C47.2 37.5943 48.0059 38.4002 49 38.4002C49.9941 38.4002 50.8 37.5943 50.8 36.6002C50.8 35.6061 49.9941 34.8002 49 34.8002ZM43.6 36.6002C43.6 33.6179 46.0176 31.2002 49 31.2002C51.9823 31.2002 54.4 33.6179 54.4 36.6002C54.4 39.5825 51.9823 42.0002 49 42.0002C46.0176 42.0002 43.6 39.5825 43.6 36.6002Z" fill="white"/>
</svg>
