<svg width="25" height="24" viewBox="0 0 25 24" fill="none" xmlns="http://www.w3.org/2000/svg">
<path d="M14.15 11.4V6.4C14.15 6.13479 14.0446 5.88043 13.8571 5.69289C13.6696 5.50536 13.4152 5.4 13.15 5.4C12.8848 5.4 12.6304 5.50536 12.4429 5.69289C12.2554 5.88043 12.15 6.13479 12.15 6.4V11.4H7.14999C6.88478 11.4 6.63042 11.5054 6.44289 11.6929C6.25535 11.8804 6.14999 12.1348 6.14999 12.4C6.14999 12.6652 6.25535 12.9196 6.44289 13.1071C6.63042 13.2946 6.88478 13.4 7.14999 13.4H12.15V18.4C12.15 18.6652 12.2554 18.9196 12.4429 19.1071C12.6304 19.2946 12.8848 19.4 13.15 19.4C13.4152 19.4 13.6696 19.2946 13.8571 19.1071C14.0446 18.9196 14.15 18.6652 14.15 18.4V13.4H19.15C19.4152 13.4 19.6696 13.2946 19.8571 13.1071C20.0446 12.9196 20.15 12.6652 20.15 12.4C20.15 12.1348 20.0446 11.8804 19.8571 11.6929C19.6696 11.5054 19.4152 11.4 19.15 11.4H14.15Z" fill="white"/>
</svg>
