<svg width="25" height="24" viewBox="0 0 25 24" fill="none" xmlns="http://www.w3.org/2000/svg">
<path d="M22.3359 5.90722C21.5863 6.2346 20.7924 6.44926 19.9799 6.54422C20.8327 6.04346 21.474 5.24933 21.7839 4.31022C20.9759 4.78055 20.0947 5.11183 19.1769 5.29022C18.7905 4.88543 18.3256 4.56361 17.8107 4.3444C17.2958 4.12519 16.7416 4.01319 16.1819 4.01522C13.9159 4.01522 12.0789 5.82522 12.0789 8.05522C12.0789 8.37122 12.1149 8.68022 12.1849 8.97522C10.5595 8.89792 8.96805 8.48263 7.51211 7.75586C6.05616 7.0291 4.7677 6.00681 3.72894 4.75423C3.36476 5.36863 3.17335 6.07001 3.17494 6.78422C3.17563 7.45219 3.34277 8.10946 3.66123 8.69662C3.97969 9.28378 4.43944 9.78234 4.99894 10.1472C4.34842 10.1262 3.71196 9.95255 3.14094 9.64022V9.69023C3.14094 11.6482 4.55594 13.2812 6.43094 13.6532C6.07855 13.7467 5.71552 13.7941 5.35094 13.7942C5.08594 13.7942 4.82894 13.7692 4.57794 13.7192C4.84602 14.5271 5.35904 15.2315 6.04576 15.7346C6.73247 16.2376 7.55878 16.5143 8.40994 16.5262C6.95001 17.6508 5.15776 18.2583 3.31494 18.2532C2.98294 18.2532 2.65694 18.2332 2.33594 18.1972C4.21719 19.3879 6.39853 20.0185 8.62494 20.0152C16.1719 20.0152 20.2979 13.8582 20.2979 8.51923L20.2839 7.99623C21.0888 7.4299 21.7841 6.72207 22.3359 5.90722Z" fill="#E2E8F0"/>
</svg>
