<svg width="24" height="24" viewBox="0 0 24 24" fill="none" xmlns="http://www.w3.org/2000/svg">
<rect x="1" y="1.00024" width="22" height="22" rx="11" stroke="#E2E8F0" stroke-width="2"/>
<path d="M11.9098 15.0162L11.5858 18.1032C11.572 18.2338 11.5326 18.3604 11.4699 18.4758C11.4072 18.5912 11.3224 18.6931 11.2203 18.7757C11.1182 18.8583 11.0008 18.92 10.8749 18.9572C10.7489 18.9945 10.6169 19.0065 10.4863 18.9927C10.3557 18.979 10.2291 18.9396 10.1137 18.8769C9.99833 18.8141 9.89643 18.7293 9.81384 18.6272C9.73124 18.5251 9.66956 18.4078 9.63232 18.2818C9.59508 18.1559 9.58301 18.0238 9.5968 17.8932L10.3198 11.0102H7.0098C6.74419 11.0102 6.48945 10.9047 6.30163 10.7169C6.11382 10.5291 6.0083 10.2744 6.0083 10.0087C6.0083 9.74313 6.11382 9.48839 6.30163 9.30058C6.48945 9.11276 6.74419 9.00724 7.0098 9.00724H17.0098C17.2754 9.00724 17.5302 9.11276 17.718 9.30058C17.9058 9.48839 18.0113 9.74313 18.0113 10.0087C18.0113 10.2744 17.9058 10.5291 17.718 10.7169C17.5302 10.9047 17.2754 11.0102 17.0098 11.0102H13.6998L14.4228 17.8952C14.4411 18.0282 14.4326 18.1634 14.3976 18.293C14.3626 18.4225 14.3019 18.5437 14.2192 18.6494C14.1364 18.755 14.0333 18.8429 13.9159 18.9079C13.7985 18.9729 13.6692 19.0136 13.5357 19.0276C13.4023 19.0416 13.2674 19.0286 13.139 18.9895C13.0107 18.9503 12.8915 18.8857 12.7886 18.7996C12.6857 18.7135 12.6012 18.6075 12.5401 18.4881C12.479 18.3686 12.4425 18.2381 12.4328 18.1042L12.1098 15.0162H11.9098V15.0162ZM12.0098 9.00624C10.9048 9.00624 10.0098 8.10924 10.0098 7.00324C10.0098 5.89724 10.9048 5.00024 12.0098 5.00024C13.1148 5.00024 14.0098 5.89724 14.0098 7.00324C14.0101 7.53403 13.7995 8.0432 13.4245 8.41881C13.0494 8.79442 12.5406 9.00571 12.0098 9.00624V9.00624Z" fill="#E2E8F0"/>
</svg>
