<svg width="65" height="65" viewBox="0 0 65 65" fill="none" xmlns="http://www.w3.org/2000/svg">
<path d="M9.09584 45.125C8.70978 45.1252 8.33191 45.0136 8.00785 44.8038C7.68379 44.594 7.42739 44.2948 7.26959 43.9425C5.36017 39.6781 4.54826 35.0037 4.90785 30.3451C5.26743 25.6866 6.78707 21.1921 9.3283 17.2713C11.8695 13.3504 15.3515 10.1278 19.457 7.89711C23.5625 5.66642 28.161 4.49858 32.8333 4.5C33.3638 4.5 33.8725 4.71071 34.2476 5.08579C34.6226 5.46086 34.8333 5.96957 34.8333 6.5V32.5C34.8334 32.8862 34.7217 33.2642 34.5116 33.5882C34.3016 33.9123 34.0022 34.1686 33.6496 34.3263L9.91209 44.945C9.6558 45.0621 9.37759 45.1234 9.09584 45.125V45.125Z" fill="#2563EB"/>
<path d="M40.0321 9.0225C39.8871 8.99309 39.7374 8.99623 39.5937 9.03169C39.45 9.06715 39.3161 9.13404 39.2014 9.22755C39.0867 9.32106 38.9942 9.43884 38.9306 9.57242C38.8669 9.706 38.8337 9.85204 38.8333 10V32.5C38.8324 33.658 38.4968 34.791 37.867 35.7628C37.2372 36.7346 36.34 37.5036 35.2833 37.9775L13.7246 47.625C13.591 47.6847 13.4721 47.7729 13.3763 47.8835C13.2805 47.9942 13.2101 48.1245 13.1702 48.2653C13.1303 48.406 13.1217 48.5539 13.1451 48.6983C13.1686 48.8428 13.2234 48.9803 13.3058 49.1012C14.9557 51.5278 17.0037 53.6582 19.3633 55.4025C23.834 58.7282 29.2614 60.5166 34.8333 60.5C49.1696 60.5 60.8333 48.8362 60.8333 34.5C60.8333 21.9437 51.8858 11.4375 40.0321 9.0225Z" fill="#2563EB"/>
</svg>
