<svg width="25" height="24" viewBox="0 0 25 24" fill="none" xmlns="http://www.w3.org/2000/svg">
<path d="M16.1693 10.657L12.2193 6.70704C12.0371 6.51844 11.9363 6.26584 11.9386 6.00364C11.9409 5.74144 12.0461 5.49063 12.2315 5.30522C12.4169 5.11981 12.6677 5.01465 12.9299 5.01237C13.1921 5.01009 13.4447 5.11088 13.6333 5.29304L19.2903 10.95C19.3835 11.0427 19.4574 11.1529 19.5079 11.2742C19.5583 11.3955 19.5843 11.5256 19.5843 11.657C19.5843 11.7884 19.5583 11.9186 19.5079 12.0399C19.4574 12.1612 19.3835 12.2714 19.2903 12.364L13.6333 18.021C13.541 18.1166 13.4307 18.1927 13.3087 18.2451C13.1867 18.2976 13.0555 18.3251 12.9227 18.3263C12.7899 18.3274 12.6582 18.3021 12.5353 18.2519C12.4124 18.2016 12.3008 18.1273 12.2069 18.0334C12.113 17.9395 12.0387 17.8279 11.9885 17.705C11.9382 17.5821 11.9129 17.4504 11.914 17.3176C11.9152 17.1849 11.9428 17.0536 11.9952 16.9316C12.0476 16.8096 12.1238 16.6993 12.2193 16.607L16.1693 12.657H6.58328C6.31807 12.657 6.06371 12.5517 5.87618 12.3641C5.68864 12.1766 5.58328 11.9223 5.58328 11.657C5.58328 11.3918 5.68864 11.1375 5.87618 10.9499C6.06371 10.7624 6.31807 10.657 6.58328 10.657H16.1693V10.657Z" fill="#2563EB"/>
</svg>
