<svg width="64" height="64" viewBox="0 0 64 64" fill="none" xmlns="http://www.w3.org/2000/svg">
<g clip-path="url(#clip0_31_1571)">
<path d="M45.3333 29.3333H18.6667C15.7211 29.3333 13.3333 31.7211 13.3333 34.6666V50.6666C13.3333 53.6122 15.7211 56 18.6667 56H45.3333C48.2789 56 50.6667 53.6122 50.6667 50.6666V34.6666C50.6667 31.7211 48.2789 29.3333 45.3333 29.3333Z" stroke="#A21CAF" stroke-width="4" stroke-linecap="round" stroke-linejoin="round"/>
<path d="M32 45.3333C33.4728 45.3333 34.6667 44.1394 34.6667 42.6667C34.6667 41.1939 33.4728 40 32 40C30.5272 40 29.3333 41.1939 29.3333 42.6667C29.3333 44.1394 30.5272 45.3333 32 45.3333Z" stroke="#A21CAF" stroke-width="4" stroke-linecap="round" stroke-linejoin="round"/>
<path d="M21.3333 29.3333V18.6667C21.3333 15.8377 22.4571 13.1246 24.4575 11.1242C26.4579 9.12381 29.171 8 32 8C34.829 8 37.5421 9.12381 39.5425 11.1242C41.5429 13.1246 42.6667 15.8377 42.6667 18.6667V29.3333" stroke="#A21CAF" stroke-width="4" stroke-linecap="round" stroke-linejoin="round"/>
</g>
<defs>
<clipPath id="clip0_31_1571">
<rect width="64" height="64" fill="white"/>
</clipPath>
</defs>
</svg>
