<svg width="58" height="59" viewBox="0 0 58 59" fill="none" xmlns="http://www.w3.org/2000/svg">
<path fill-rule="evenodd" clip-rule="evenodd" d="M7.19995 18.6002C7.19995 17.6061 8.00584 16.8002 8.99995 16.8002H48.6C49.5941 16.8002 50.4 17.6061 50.4 18.6002C50.4 19.5943 49.5941 20.4002 48.6 20.4002H8.99995C8.00584 20.4002 7.19995 19.5943 7.19995 18.6002Z" fill="white"/>
<path fill-rule="evenodd" clip-rule="evenodd" d="M7.19995 29.4002C7.19995 28.4061 8.00584 27.6002 8.99995 27.6002H48.6C49.5941 27.6002 50.4 28.4061 50.4 29.4002C50.4 30.3943 49.5941 31.2002 48.6 31.2002H8.99995C8.00584 31.2002 7.19995 30.3943 7.19995 29.4002Z" fill="white"/>
<path fill-rule="evenodd" clip-rule="evenodd" d="M7.19995 40.2003C7.19995 39.2062 8.00584 38.4003 8.99995 38.4003H48.6C49.5941 38.4003 50.4 39.2062 50.4 40.2003C50.4 41.1944 49.5941 42.0003 48.6 42.0003H8.99995C8.00584 42.0003 7.19995 41.1944 7.19995 40.2003Z" fill="white"/>
</svg>
