<svg width="25" height="24" viewBox="0 0 25 24" fill="none" xmlns="http://www.w3.org/2000/svg">
<path d="M13.8167 11.4V6.40002C13.8167 6.13481 13.7113 5.88045 13.5238 5.69292C13.3362 5.50538 13.0819 5.40002 12.8167 5.40002C12.5515 5.40002 12.2971 5.50538 12.1096 5.69292C11.922 5.88045 11.8167 6.13481 11.8167 6.40002V11.4H6.81667C6.55146 11.4 6.2971 11.5054 6.10957 11.6929C5.92203 11.8805 5.81667 12.1348 5.81667 12.4C5.81667 12.6652 5.92203 12.9196 6.10957 13.1071C6.2971 13.2947 6.55146 13.4 6.81667 13.4H11.8167V18.4C11.8167 18.6652 11.922 18.9196 12.1096 19.1071C12.2971 19.2947 12.5515 19.4 12.8167 19.4C13.0819 19.4 13.3362 19.2947 13.5238 19.1071C13.7113 18.9196 13.8167 18.6652 13.8167 18.4V13.4H18.8167C19.0819 13.4 19.3362 13.2947 19.5238 13.1071C19.7113 12.9196 19.8167 12.6652 19.8167 12.4C19.8167 12.1348 19.7113 11.8805 19.5238 11.6929C19.3362 11.5054 19.0819 11.4 18.8167 11.4H13.8167Z" fill="white"/>
</svg>
