<svg width="25" height="24" viewBox="0 0 25 24" fill="none" xmlns="http://www.w3.org/2000/svg">
<path d="M16.336 10.657L12.386 6.70704C12.2038 6.51844 12.103 6.26584 12.1053 6.00364C12.1076 5.74144 12.2127 5.49063 12.3982 5.30522C12.5836 5.11981 12.8344 5.01465 13.0966 5.01237C13.3588 5.01009 13.6114 5.11088 13.8 5.29304L19.457 10.95C19.5502 11.0427 19.6241 11.1529 19.6746 11.2742C19.725 11.3955 19.751 11.5256 19.751 11.657C19.751 11.7884 19.725 11.9186 19.6746 12.0399C19.6241 12.1612 19.5502 12.2714 19.457 12.364L13.8 18.021C13.7077 18.1166 13.5974 18.1927 13.4754 18.2451C13.3534 18.2976 13.2222 18.3251 13.0894 18.3263C12.9566 18.3274 12.8249 18.3021 12.702 18.2519C12.5791 18.2016 12.4675 18.1273 12.3736 18.0334C12.2797 17.9395 12.2054 17.8279 12.1551 17.705C12.1049 17.5821 12.0796 17.4504 12.0807 17.3176C12.0819 17.1849 12.1095 17.0536 12.1619 16.9316C12.2143 16.8096 12.2905 16.6993 12.386 16.607L16.336 12.657H6.74997C6.48475 12.657 6.2304 12.5517 6.04286 12.3641C5.85533 12.1766 5.74997 11.9223 5.74997 11.657C5.74997 11.3918 5.85533 11.1375 6.04286 10.9499C6.2304 10.7624 6.48475 10.657 6.74997 10.657H16.336V10.657Z" fill="white"/>
</svg>
