<svg width="65" height="64" viewBox="0 0 65 64" fill="none" xmlns="http://www.w3.org/2000/svg">
<g clip-path="url(#clip0_31_1420)">
<path d="M48.6667 16V16.0267" stroke="#A21CAF" stroke-width="4" stroke-linecap="round" stroke-linejoin="round"/>
<path d="M48.6667 34.6667L39.3333 21.3333C38.4349 19.7094 37.9756 17.8792 38.001 16.0235C38.0264 14.1677 38.5355 12.3507 39.4781 10.752C40.4207 9.15328 41.764 7.82814 43.3755 6.90753C44.987 5.98691 46.8108 5.50269 48.6667 5.50269C50.5226 5.50269 52.3464 5.98691 53.9578 6.90753C55.5693 7.82814 56.9127 9.15328 57.8553 10.752C58.7978 12.3507 59.307 14.1677 59.3323 16.0235C59.3577 17.8792 58.8985 19.7094 58 21.3333L48.6667 34.6667Z" stroke="#A21CAF" stroke-width="4" stroke-linecap="round" stroke-linejoin="round"/>
<path d="M28.6667 12.6667L24.6667 10.6667L8.66667 18.6667V53.3334L24.6667 45.3334L40.6667 53.3334L56.6667 45.3334V40" stroke="#A21CAF" stroke-width="4" stroke-linecap="round" stroke-linejoin="round"/>
<path d="M24.6667 10.6667V45.3334" stroke="#A21CAF" stroke-width="4" stroke-linecap="round" stroke-linejoin="round"/>
<path d="M40.6667 40V53.3333" stroke="#A21CAF" stroke-width="4" stroke-linecap="round" stroke-linejoin="round"/>
</g>
<defs>
<clipPath id="clip0_31_1420">
<rect width="64" height="64" fill="white" transform="translate(0.666672)"/>
</clipPath>
</defs>
</svg>
