<svg width="58" height="59" viewBox="0 0 58 59" fill="none" xmlns="http://www.w3.org/2000/svg">
<path fill-rule="evenodd" clip-rule="evenodd" d="M14.2542 9.28197C17.4565 7.14229 21.2213 6.00024 25.0726 6.00024V7.80024L25.0727 6.00024C30.2371 6.00057 35.1898 8.05224 38.8415 11.704C42.4932 15.3557 44.5449 20.3084 44.5452 25.4728V25.4729C44.5452 29.3242 43.4032 33.089 41.2635 36.2913C39.1238 39.4935 36.0826 41.9894 32.5245 43.4632C28.9663 44.9371 25.051 45.3227 21.2737 44.5713C17.4964 43.82 14.0267 41.9654 11.3034 39.2421C8.58009 36.5188 6.7255 33.0491 5.97415 29.2718C5.22279 25.4945 5.60841 21.5792 7.08225 18.021C8.55609 14.4629 11.0519 11.4217 14.2542 9.28197ZM25.0726 9.60024C29.2822 9.60054 33.3193 11.2729 36.2959 14.2496C39.2726 17.2262 40.9449 21.2633 40.9452 25.4729M25.0725 9.60024C21.9332 9.60027 18.8645 10.5312 16.2543 12.2753C13.644 14.0194 11.6096 16.4983 10.4082 19.3987C9.20686 22.299 8.89252 25.4905 9.50497 28.5695C10.1174 31.6485 11.6291 34.4767 13.849 36.6965C16.0688 38.9163 18.897 40.4281 21.976 41.0405C25.055 41.653 28.2465 41.3386 31.1468 40.1373C34.0471 38.9359 36.5261 36.9015 38.2702 34.2912C40.0143 31.681 40.9452 28.6123 40.9452 25.473" fill="white"/>
<path fill-rule="evenodd" clip-rule="evenodd" d="M36.9847 37.3851C37.6877 36.6822 38.8274 36.6822 39.5303 37.3851L51.8727 49.7275C52.5756 50.4304 52.5756 51.5701 51.8727 52.2731C51.1697 52.976 50.03 52.976 49.3271 52.2731L36.9847 39.9307C36.2818 39.2278 36.2818 38.0881 36.9847 37.3851Z" fill="white"/>
</svg>
