<svg width="64" height="64" viewBox="0 0 64 64" fill="none" xmlns="http://www.w3.org/2000/svg">
<path d="M18.6667 50.6668C21.6122 50.6668 24 48.2791 24 45.3335C24 42.3879 21.6122 40.0001 18.6667 40.0001C15.7212 40.0001 13.3334 42.3879 13.3334 45.3335C13.3334 48.2791 15.7212 50.6668 18.6667 50.6668Z" stroke="#7E22CE" stroke-width="1.5" stroke-miterlimit="1.5" stroke-linecap="round" stroke-linejoin="round"/>
<path d="M45.3333 50.6668C48.2789 50.6668 50.6667 48.2791 50.6667 45.3335C50.6667 42.3879 48.2789 40.0001 45.3333 40.0001C42.3877 40.0001 40 42.3879 40 45.3335C40 48.2791 42.3877 50.6668 45.3333 50.6668Z" stroke="#7E22CE" stroke-width="1.5" stroke-miterlimit="1.5" stroke-linecap="round" stroke-linejoin="round"/>
<path d="M37.3334 45.3335V17.6001C37.3334 16.7165 36.6171 16.0001 35.7334 16.0001H6.93337C6.04972 16.0001 5.33337 16.7165 5.33337 17.6001V43.7335C5.33337 44.6172 6.04972 45.3335 6.93337 45.3335H12.4" stroke="#7E22CE" stroke-width="1.5" stroke-linecap="round"/>
<path d="M37.3333 45.3334H24.1334" stroke="#7E22CE" stroke-width="1.5" stroke-linecap="round"/>
<path d="M37.3334 24.0001H52.2936C52.9259 24.0001 53.499 24.3725 53.7558 24.9503L58.5288 35.6897C58.6198 35.8945 58.6667 36.1159 58.6667 36.3396V43.7335C58.6667 44.6172 57.9504 45.3335 57.0667 45.3335H52" stroke="#7E22CE" stroke-width="1.5" stroke-linecap="round"/>
<path d="M37.3334 45.3334H40" stroke="#7E22CE" stroke-width="1.5" stroke-linecap="round"/>
</svg>
