<svg width="25" height="24" viewBox="0 0 25 24" fill="none" xmlns="http://www.w3.org/2000/svg">
<path d="M12.3457 2.00024C6.8257 2.00024 2.3457 6.48024 2.3457 12.0002C2.3457 17.5202 6.8257 22.0002 12.3457 22.0002C17.8557 22.0002 22.3457 17.5202 22.3457 12.0002C22.3457 6.48024 17.8557 2.00024 12.3457 2.00024ZM18.9507 6.61024C20.1814 8.10955 20.8624 9.98461 20.8807 11.9242C20.5997 11.8702 17.7797 11.2952 14.9377 11.6532C14.8727 11.5122 14.8177 11.3602 14.7537 11.2082C14.5767 10.7913 14.3887 10.3791 14.1897 9.97224C17.3347 8.69224 18.7667 6.84824 18.9507 6.61024V6.61024ZM12.3457 3.47524C14.5157 3.47524 16.4997 4.28824 18.0077 5.62324C17.8557 5.83924 16.5647 7.56424 13.5277 8.70324C12.1287 6.13324 10.5777 4.02824 10.3387 3.70324C10.9966 3.54945 11.6701 3.47293 12.3457 3.47524V3.47524ZM8.7127 4.27824C9.85713 5.86456 10.9144 7.512 11.8797 9.21324C7.8877 10.2752 4.3627 10.2532 3.9837 10.2532C4.25853 8.96037 4.82831 7.74846 5.6486 6.71204C6.4689 5.67561 7.51753 4.84269 8.7127 4.27824V4.27824ZM3.7987 12.0102V11.7502C4.1687 11.7602 8.3107 11.8152 12.5737 10.5352C12.8237 11.0122 13.0507 11.5002 13.2677 11.9882C13.1587 12.0212 13.0397 12.0532 12.9317 12.0862C8.5277 13.5062 6.1847 17.3892 5.9897 17.7152C4.57954 16.1497 3.79934 14.1173 3.7997 12.0102H3.7987ZM12.3457 20.5472C10.4471 20.5505 8.60237 19.9167 7.1067 18.7472C7.2587 18.4322 8.9947 15.0912 13.8097 13.4102C13.8317 13.4002 13.8427 13.4002 13.8637 13.3882C14.676 15.4836 15.2865 17.6518 15.6867 19.8632C14.6315 20.3173 13.4944 20.5501 12.3457 20.5472V20.5472ZM17.1067 19.0822C17.0207 18.5622 16.5647 16.0672 15.4477 12.9982C18.1267 12.5752 20.4697 13.2692 20.7617 13.3672C20.5793 14.5203 20.1605 15.6233 19.5315 16.6067C18.9025 17.5902 18.077 18.433 17.1067 19.0822V19.0822Z" fill="#475569"/>
</svg>
