<svg width="25" height="24" viewBox="0 0 25 24" fill="none" xmlns="http://www.w3.org/2000/svg">
<path d="M18.1479 5.01724H6.48094C4.19094 5.01724 2.33594 6.85224 2.33594 9.11624V14.8842C2.33594 17.1482 4.19194 18.9842 6.48094 18.9842H18.1479C20.4379 18.9842 22.2929 17.1482 22.2929 14.8842V9.11624C22.2929 6.85224 20.4369 5.01624 18.1479 5.01624V5.01724ZM15.3449 12.2802L9.88794 14.8552C9.85465 14.8713 9.81786 14.8786 9.78097 14.8766C9.74408 14.8746 9.70831 14.8633 9.67697 14.8437C9.64563 14.8241 9.61975 14.797 9.60174 14.7647C9.58372 14.7325 9.57416 14.6962 9.57394 14.6592V9.35024C9.5746 9.31311 9.58466 9.27675 9.60316 9.24456C9.62166 9.21237 9.64801 9.18538 9.67976 9.16611C9.7115 9.14685 9.74761 9.13593 9.78471 9.13438C9.82181 9.13282 9.8587 9.14069 9.89194 9.15724L15.3499 11.8922C15.3863 11.9104 15.4168 11.9384 15.4379 11.9731C15.4591 12.0077 15.47 12.0477 15.4695 12.0883C15.469 12.1289 15.457 12.1686 15.435 12.2027C15.413 12.2368 15.3817 12.264 15.3449 12.2812V12.2802Z" fill="#E2E8F0"/>
</svg>
