<svg width="25" height="24" viewBox="0 0 25 24" fill="none" xmlns="http://www.w3.org/2000/svg">
<path d="M16.2525 10.657L12.3025 6.70704C12.1203 6.51844 12.0196 6.26584 12.0218 6.00364C12.0241 5.74144 12.1293 5.49063 12.3147 5.30522C12.5001 5.11981 12.7509 5.01465 13.0131 5.01237C13.2753 5.01009 13.5279 5.11088 13.7165 5.29304L19.3735 10.95C19.4667 11.0427 19.5406 11.1529 19.5911 11.2742C19.6416 11.3955 19.6675 11.5256 19.6675 11.657C19.6675 11.7884 19.6416 11.9186 19.5911 12.0399C19.5406 12.1612 19.4667 12.2714 19.3735 12.364L13.7165 18.021C13.6243 18.1166 13.5139 18.1927 13.3919 18.2451C13.2699 18.2976 13.1387 18.3251 13.0059 18.3263C12.8731 18.3274 12.7414 18.3021 12.6185 18.2519C12.4957 18.2016 12.384 18.1273 12.2901 18.0334C12.1962 17.9395 12.122 17.8279 12.0717 17.705C12.0214 17.5821 11.9961 17.4504 11.9973 17.3176C11.9984 17.1849 12.026 17.0536 12.0784 16.9316C12.1308 16.8096 12.207 16.6993 12.3025 16.607L16.2525 12.657H6.6665C6.40129 12.657 6.14693 12.5517 5.9594 12.3641C5.77186 12.1766 5.6665 11.9223 5.6665 11.657C5.6665 11.3918 5.77186 11.1375 5.9594 10.9499C6.14693 10.7624 6.40129 10.657 6.6665 10.657H16.2525Z" fill="#E2E8F0"/>
</svg>
