<svg width="25" height="24" viewBox="0 0 25 24" fill="none" xmlns="http://www.w3.org/2000/svg">
<g clip-path="url(#clip0_34_1835)">
<path d="M13.8734 12.0003C13.8734 15.7278 10.8434 18.7503 7.10394 18.7503C6.21633 18.7514 5.33719 18.5778 4.51669 18.2392C3.6962 17.9006 2.95043 17.4037 2.32197 16.777C1.6935 16.1502 1.19464 15.4057 0.853878 14.5861C0.513115 13.7665 0.337119 12.8879 0.335938 12.0003C0.335938 8.27125 3.36594 5.25025 7.10394 5.25025C7.99167 5.24887 8.87098 5.42238 9.69164 5.76087C10.5123 6.09936 11.2583 6.59621 11.8869 7.22302C12.5155 7.84984 13.0145 8.59435 13.3554 9.41403C13.6962 10.2337 13.8723 11.1125 13.8734 12.0003V12.0003ZM21.2984 12.0003C21.2984 15.5103 19.7834 18.3543 17.9144 18.3543C16.0454 18.3543 14.5304 15.5088 14.5304 12.0003C14.5304 8.49025 16.0454 5.64625 17.9144 5.64625C19.7834 5.64625 21.2984 8.49175 21.2984 12.0003ZM24.3359 12.0003C24.3359 15.1443 23.8034 17.6928 23.1449 17.6928C22.4879 17.6928 21.9554 15.1428 21.9554 12.0003C21.9554 8.85625 22.4879 6.30775 23.1464 6.30775C23.8034 6.30775 24.3359 8.85625 24.3359 12.0003Z" fill="#475569"/>
</g>
<defs>
<clipPath id="clip0_34_1835">
<rect width="24" height="24" fill="white" transform="translate(0.335938 0.000244141)"/>
</clipPath>
</defs>
</svg>
