<svg width="58" height="58" viewBox="0 0 58 58" fill="none" xmlns="http://www.w3.org/2000/svg">
<path fill-rule="evenodd" clip-rule="evenodd" d="M29.7592 11.0908C30.8136 12.1452 30.8136 13.8548 29.7592 14.9092L15.4684 29.2L29.7592 43.4908C30.8136 44.5453 30.8136 46.2548 29.7592 47.3092C28.7048 48.3636 26.9952 48.3636 25.9408 47.3092L9.74082 31.1092C8.68641 30.0548 8.68641 28.3453 9.74082 27.2908L25.9408 11.0908C26.9952 10.0364 28.7048 10.0364 29.7592 11.0908Z" fill="white"/>
<path fill-rule="evenodd" clip-rule="evenodd" d="M11.2 29.2C11.2 27.7089 12.4088 26.5 13.9 26.5H46.75C48.2412 26.5 49.45 27.7089 49.45 29.2C49.45 30.6912 48.2412 31.9 46.75 31.9H13.9C12.4088 31.9 11.2 30.6912 11.2 29.2Z" fill="white"/>
</svg>
