<svg width="25" height="24" viewBox="0 0 25 24" fill="none" xmlns="http://www.w3.org/2000/svg">
<path d="M13.9833 11.4V6.40002C13.9833 6.13481 13.8779 5.88045 13.6904 5.69292C13.5028 5.50538 13.2485 5.40002 12.9833 5.40002C12.7181 5.40002 12.4637 5.50538 12.2762 5.69292C12.0886 5.88045 11.9833 6.13481 11.9833 6.40002V11.4H6.98328C6.71806 11.4 6.46371 11.5054 6.27617 11.6929C6.08863 11.8805 5.98328 12.1348 5.98328 12.4C5.98328 12.6652 6.08863 12.9196 6.27617 13.1071C6.46371 13.2947 6.71806 13.4 6.98328 13.4H11.9833V18.4C11.9833 18.6652 12.0886 18.9196 12.2762 19.1071C12.4637 19.2947 12.7181 19.4 12.9833 19.4C13.2485 19.4 13.5028 19.2947 13.6904 19.1071C13.8779 18.9196 13.9833 18.6652 13.9833 18.4V13.4H18.9833C19.2485 13.4 19.5028 13.2947 19.6904 13.1071C19.8779 12.9196 19.9833 12.6652 19.9833 12.4C19.9833 12.1348 19.8779 11.8805 19.6904 11.6929C19.5028 11.5054 19.2485 11.4 18.9833 11.4H13.9833Z" fill="#2563EB"/>
</svg>
