<svg width="64" height="64" viewBox="0 0 64 64" fill="none" xmlns="http://www.w3.org/2000/svg">
<path d="M38.6666 22.6668C36.5848 22.1271 33.6917 21.3334 31.3725 21.3334C19.9369 21.3334 10.6666 28.447 10.6666 37.2222C10.6666 42.2649 13.7278 46.7588 18.5019 49.6697L17.2084 53.9358C16.8969 54.9633 17.6659 56.0001 18.7396 56.0001H23.4439C23.7902 56.0001 24.1272 55.8878 24.4043 55.6798L28.1232 52.8889H34.6216L38.3405 55.6798C38.6176 55.8878 38.9546 56.0001 39.301 56.0001H44.0053C45.0789 56.0001 45.848 54.9633 45.5362 53.9358L44.2429 49.6697C47.0872 47.9356 49.3234 45.6393 50.6666 43.0001" stroke="#7E22CE" stroke-width="1.5" stroke-linecap="round" stroke-linejoin="round"/>
<path d="M38.6666 22.6668L50.6666 18.6668L50.4426 28.3423L56 30.6668V40.0001L50.8642 42.6668" stroke="#7E22CE" stroke-width="1.5" stroke-linecap="round" stroke-linejoin="round"/>
<path d="M41.3333 34.6668C40.5971 34.6668 40 34.0697 40 33.3335C40 32.5972 40.5971 32.0001 41.3333 32.0001C42.0696 32.0001 42.6667 32.5972 42.6667 33.3335C42.6667 34.0697 42.0696 34.6668 41.3333 34.6668Z" fill="#7E22CE" stroke="#7E22CE" stroke-width="1.5" stroke-linecap="round" stroke-linejoin="round"/>
<path d="M5.33337 26.6668C5.33337 26.6668 5.33337 33.0668 10.6667 34.6668" stroke="#7E22CE" stroke-width="1.5" stroke-linecap="round" stroke-linejoin="round"/>
<path d="M34.1355 20.6747C34.4795 19.6836 34.6667 18.6171 34.6667 17.506C34.6667 12.2561 30.488 8.00012 25.3333 8.00012C20.1787 8.00012 16 12.2561 16 17.506C16 20.0171 16.956 22.3008 18.5174 24.0001" stroke="#7E22CE" stroke-width="1.5" stroke-linejoin="round"/>
</svg>
