<svg width="24" height="24" viewBox="0 0 24 24" fill="none" xmlns="http://www.w3.org/2000/svg">
<path d="M4.252 10.0002C4.08416 10.6536 3.99949 11.3256 4 12.0002C4 12.6902 4.088 13.3602 4.252 14.0002H7.1C6.96518 12.6703 6.96518 11.3302 7.1 10.0002H4.252ZM5.07 8.00024H7.416C7.682 6.78324 8.066 5.69324 8.537 4.78624C7.08518 5.48566 5.87722 6.60548 5.07 8.00024V8.00024ZM19.748 10.0002H16.9C17.0348 11.3302 17.0348 12.6703 16.9 14.0002H19.748C20.0847 12.6882 20.0847 11.3123 19.748 10.0002ZM18.93 8.00024C18.1228 6.60548 16.9148 5.48566 15.463 4.78624C15.935 5.69324 16.318 6.78324 16.584 8.00024H18.93ZM9.112 10.0002C9.03708 10.6643 8.99968 11.332 9 12.0002C9 12.6852 9.038 13.3552 9.112 14.0002H14.888C15.0386 12.6712 15.0386 11.3293 14.888 10.0002H9.112ZM9.47 8.00024H14.53C14.348 7.24854 14.0855 6.51866 13.747 5.82324C13.119 4.56824 12.447 4.00024 12 4.00024C11.552 4.00024 10.881 4.56824 10.253 5.82324C9.938 6.45524 9.673 7.19024 9.47 8.00024ZM5.07 16.0002C5.87722 17.395 7.08518 18.5148 8.537 19.2142C8.065 18.3072 7.682 17.2172 7.416 16.0002H5.07V16.0002ZM18.93 16.0002H16.584C16.318 17.2172 15.934 18.3072 15.463 19.2142C16.9148 18.5148 18.1228 17.395 18.93 16.0002ZM9.47 16.0002C9.673 16.8102 9.938 17.5452 10.253 18.1772C10.881 19.4322 11.553 20.0002 12 20.0002C12.448 20.0002 13.119 19.4322 13.747 18.1772C14.062 17.5452 14.327 16.8102 14.53 16.0002H9.47V16.0002ZM12 22.0002C6.477 22.0002 2 17.5232 2 12.0002C2 6.47724 6.477 2.00024 12 2.00024C17.523 2.00024 22 6.47724 22 12.0002C22 17.5232 17.523 22.0002 12 22.0002Z" fill="#E2E8F0"/>
</svg>
