<svg width="25" height="24" viewBox="0 0 25 24" fill="none" xmlns="http://www.w3.org/2000/svg">
<path d="M15.836 10.657L11.886 6.707C11.7038 6.5184 11.603 6.2658 11.6053 6.0036C11.6076 5.7414 11.7128 5.49059 11.8982 5.30518C12.0836 5.11978 12.3344 5.01461 12.5966 5.01233C12.8588 5.01005 13.1114 5.11084 13.3 5.293L18.957 10.95C19.0502 11.0427 19.1241 11.1528 19.1746 11.2741C19.2251 11.3955 19.251 11.5256 19.251 11.657C19.251 11.7884 19.2251 11.9185 19.1746 12.0399C19.1241 12.1612 19.0502 12.2713 18.957 12.364L13.3 18.021C13.2078 18.1165 13.0974 18.1927 12.9754 18.2451C12.8534 18.2975 12.7222 18.3251 12.5894 18.3263C12.4566 18.3274 12.3249 18.3021 12.202 18.2518C12.0791 18.2015 11.9675 18.1273 11.8736 18.0334C11.7797 17.9395 11.7055 17.8279 11.6552 17.705C11.6049 17.5821 11.5796 17.4504 11.5807 17.3176C11.5819 17.1848 11.6095 17.0536 11.6619 16.9316C11.7143 16.8096 11.7905 16.6993 11.886 16.607L15.836 12.657H6.25C5.98478 12.657 5.73043 12.5516 5.54289 12.3641C5.35536 12.1766 5.25 11.9222 5.25 11.657C5.25 11.3918 5.35536 11.1374 5.54289 10.9499C5.73043 10.7624 5.98478 10.657 6.25 10.657H15.836V10.657Z" fill="#2563EB"/>
</svg>
