<svg width="24" height="24" viewBox="0 0 24 24" fill="none" xmlns="http://www.w3.org/2000/svg">
<path d="M14.738 7.97205L5.69997 17.0101L5.10897 19.0261L7.08397 18.4551L16.152 9.38705L14.738 7.97205ZM16.28 6.43005L17.694 7.84405L19.012 6.52605C19.1057 6.43229 19.1584 6.30514 19.1584 6.17255C19.1584 6.03997 19.1057 5.91282 19.012 5.81905L18.304 5.11205C18.2102 5.01832 18.0831 4.96566 17.9505 4.96566C17.8179 4.96566 17.6907 5.01832 17.597 5.11205L16.281 6.43005H16.28ZM19.719 3.69805L20.426 4.40505C20.8947 4.87387 21.1579 5.50964 21.1579 6.17255C21.1579 6.83546 20.8947 7.47123 20.426 7.94005L8.13397 20.2331L3.91397 21.4531C3.74196 21.5026 3.55979 21.5052 3.38648 21.4603C3.21317 21.4155 3.05507 21.3249 2.92869 21.1982C2.8023 21.0714 2.71228 20.913 2.668 20.7395C2.62372 20.5661 2.62682 20.3839 2.67697 20.2121L3.92497 15.9571L16.185 3.69705C16.6538 3.22838 17.2896 2.96509 17.9525 2.96509C18.6154 2.96509 19.2512 3.22838 19.72 3.69705L19.719 3.69805Z" fill="#475569"/>
</svg>
