<svg width="65" height="65" viewBox="0 0 65 65" fill="none" xmlns="http://www.w3.org/2000/svg">
<path fill-rule="evenodd" clip-rule="evenodd" d="M25.0084 9.12789C26.2897 8.5926 27.6645 8.31697 29.0531 8.31697C30.4417 8.31697 31.8165 8.5926 33.0978 9.12789C34.3791 9.66317 35.5414 10.4475 36.5173 11.4353C37.4932 12.4231 38.2634 13.5949 38.7831 14.8825C39.3013 16.1665 39.5602 17.5403 39.545 18.9247L39.5287 42.4977L39.5285 42.5128C39.4994 44.3526 38.7482 46.1072 37.4369 47.3979C36.1256 48.6887 34.3594 49.4121 32.5194 49.4121C30.6794 49.4121 28.9132 48.6887 27.6019 47.3979C26.2906 46.1072 25.5393 44.3526 25.5103 42.5128L25.51 42.497V24.5C25.51 23.3954 26.4054 22.5 27.51 22.5C28.6146 22.5 29.51 23.3954 29.51 24.5V42.4635C29.526 43.2484 29.8481 43.9962 30.4079 44.5473C30.9709 45.1015 31.7293 45.4121 32.5194 45.4121C33.3094 45.4121 34.0678 45.1015 34.6309 44.5473C35.1908 43.9961 35.5129 43.248 35.5288 42.4629L35.545 18.8997L35.5451 18.8882C35.5556 18.0291 35.3954 17.1764 35.0738 16.3796C34.7522 15.5828 34.2757 14.8578 33.6718 14.2465C33.0679 13.6353 32.3487 13.15 31.5559 12.8187C30.7631 12.4875 29.9124 12.317 29.0531 12.317C28.1939 12.317 27.3432 12.4875 26.5504 12.8187C25.7575 13.15 25.0383 13.6353 24.4345 14.2465C23.8306 14.8578 23.3541 15.5828 23.0325 16.3796C22.7109 17.1764 22.5507 18.0291 22.5611 18.8882L22.5613 18.9004V42.6545L22.561 42.6689C22.542 43.9861 22.7849 45.2939 23.2758 46.5163C23.7667 47.7387 24.4956 48.8513 25.4203 49.7895C26.345 50.7277 27.447 51.4726 28.6622 51.9811C29.8773 52.4896 31.1815 52.7515 32.4988 52.7515C33.816 52.7515 35.1202 52.4896 36.3353 51.9811C37.5505 51.4726 38.6525 50.7277 39.5772 49.7895C40.5019 48.8513 41.2308 47.7387 41.7217 46.5163C42.2126 45.2939 42.4555 43.9861 42.4365 42.6689L42.4363 42.6545V20.4675C42.4363 19.3629 43.3317 18.4675 44.4363 18.4675C45.5408 18.4675 46.4363 19.3629 46.4363 20.4675V42.6261C46.4609 44.4683 46.1202 46.2971 45.4336 48.0068C44.7452 49.7212 43.7228 51.2816 42.426 52.5974C41.1291 53.9131 39.5837 54.9579 37.8794 55.6711C36.1752 56.3843 34.3462 56.7515 32.4988 56.7515C30.6513 56.7515 28.8223 56.3843 27.1181 55.6711C25.4138 54.9579 23.8684 53.9131 22.5715 52.5974C21.2747 51.2816 20.2523 49.7212 19.5639 48.0068C18.8773 46.2971 18.5366 44.4682 18.5613 42.6261V18.924C18.5461 17.5398 18.8051 16.1663 19.3232 14.8825C19.8429 13.5948 20.613 12.4231 21.5889 11.4353C22.5649 10.4475 23.7272 9.66317 25.0084 9.12789Z" fill="#059669"/>
</svg>
