<svg width="25" height="24" viewBox="0 0 25 24" fill="none" xmlns="http://www.w3.org/2000/svg">
<path d="M4.9185 10C4.75066 10.6534 4.66599 11.3254 4.6665 12C4.6665 12.69 4.7545 13.36 4.9185 14H7.7665C7.63168 12.6701 7.63168 11.3299 7.7665 10H4.9185ZM5.7365 8H8.0825C8.3485 6.783 8.7325 5.693 9.2035 4.786C7.75168 5.48542 6.54372 6.60523 5.7365 8V8ZM20.4145 10H17.5665C17.7013 11.3299 17.7013 12.6701 17.5665 14H20.4145C20.7512 12.6879 20.7512 11.3121 20.4145 10ZM19.5965 8C18.7893 6.60523 17.5813 5.48542 16.1295 4.786C16.6015 5.693 16.9845 6.783 17.2505 8H19.5965ZM9.7785 10C9.70358 10.664 9.66619 11.3318 9.6665 12C9.6665 12.685 9.7045 13.355 9.7785 14H15.5545C15.7051 12.6709 15.7051 11.3291 15.5545 10H9.7785ZM10.1365 8H15.1965C15.0145 7.2483 14.752 6.51841 14.4135 5.823C13.7855 4.568 13.1135 4 12.6665 4C12.2185 4 11.5475 4.568 10.9195 5.823C10.6045 6.455 10.3395 7.19 10.1365 8ZM5.7365 16C6.54372 17.3948 7.75168 18.5146 9.2035 19.214C8.7315 18.307 8.3485 17.217 8.0825 16H5.7365V16ZM19.5965 16H17.2505C16.9845 17.217 16.6005 18.307 16.1295 19.214C17.5813 18.5146 18.7893 17.3948 19.5965 16ZM10.1365 16C10.3395 16.81 10.6045 17.545 10.9195 18.177C11.5475 19.432 12.2195 20 12.6665 20C13.1145 20 13.7855 19.432 14.4135 18.177C14.7285 17.545 14.9935 16.81 15.1965 16H10.1365V16ZM12.6665 22C7.1435 22 2.6665 17.523 2.6665 12C2.6665 6.477 7.1435 2 12.6665 2C18.1895 2 22.6665 6.477 22.6665 12C22.6665 17.523 18.1895 22 12.6665 22Z" fill="#475569"/>
</svg>
