<svg width="25" height="24" viewBox="0 0 25 24" fill="none" xmlns="http://www.w3.org/2000/svg">
<path d="M16.2525 10.6573L12.3025 6.70725C12.1203 6.51865 12.0196 6.26605 12.0218 6.00385C12.0241 5.74166 12.1293 5.49084 12.3147 5.30544C12.5001 5.12003 12.7509 5.01486 13.0131 5.01258C13.2753 5.0103 13.5279 5.1111 13.7165 5.29325L19.3735 10.9503C19.4667 11.0429 19.5406 11.1531 19.5911 11.2744C19.6416 11.3957 19.6675 11.5258 19.6675 11.6573C19.6675 11.7887 19.6416 11.9188 19.5911 12.0401C19.5406 12.1614 19.4667 12.2716 19.3735 12.3643L13.7165 18.0213C13.6243 18.1168 13.5139 18.1929 13.3919 18.2454C13.2699 18.2978 13.1387 18.3254 13.0059 18.3265C12.8731 18.3277 12.7414 18.3024 12.6185 18.2521C12.4957 18.2018 12.384 18.1275 12.2901 18.0336C12.1962 17.9398 12.122 17.8281 12.0717 17.7052C12.0214 17.5823 11.9961 17.4506 11.9973 17.3179C11.9984 17.1851 12.026 17.0539 12.0784 16.9319C12.1308 16.8098 12.207 16.6995 12.3025 16.6073L16.2525 12.6573H6.6665C6.40129 12.6573 6.14693 12.5519 5.9594 12.3644C5.77186 12.1768 5.6665 11.9225 5.6665 11.6573C5.6665 11.392 5.77186 11.1377 5.9594 10.9501C6.14693 10.7626 6.40129 10.6573 6.6665 10.6573H16.2525V10.6573Z" fill="#475569"/>
</svg>
