<svg width="25" height="24" viewBox="0 0 25 24" fill="none" xmlns="http://www.w3.org/2000/svg">
<path d="M22.2949 13.7192V21.0982H18.0169V14.2132C18.0169 12.4832 17.3979 11.3032 15.8499 11.3032C14.6679 11.3032 13.9639 12.0992 13.6549 12.8682C13.5419 13.1432 13.5129 13.5262 13.5129 13.9112V21.0982H9.23294C9.23294 21.0982 9.29094 9.43825 9.23294 8.22925H13.5129V10.0532L13.4849 10.0952H13.5129V10.0532C14.0809 9.17825 15.0959 7.92725 17.3689 7.92725C20.1839 7.92725 22.2949 9.76725 22.2949 13.7192ZM4.75694 2.02625C3.29394 2.02625 2.33594 2.98625 2.33594 4.24925C2.33594 5.48425 3.26594 6.47325 4.70094 6.47325H4.72894C6.22194 6.47325 7.14894 5.48425 7.14894 4.24925C7.12294 2.98625 6.22294 2.02625 4.75794 2.02625H4.75694ZM2.58994 21.0982H6.86794V8.22925H2.58994V21.0982Z" fill="#E2E8F0"/>
</svg>
