<svg width="25" height="24" viewBox="0 0 25 24" fill="none" xmlns="http://www.w3.org/2000/svg">
<g clip-path="url(#clip0_34_1839)">
<path d="M13.8359 0.000244141H16.8059C17.0219 1.07274 17.6159 2.42574 18.6584 3.76824C19.6784 5.08374 21.0314 6.00024 22.8359 6.00024V9.00024C20.2064 9.00024 18.2309 7.77924 16.8359 6.25674V16.5002C16.8359 17.9836 16.3961 19.4337 15.572 20.667C14.7479 21.9004 13.5765 22.8617 12.2061 23.4293C10.8356 23.997 9.32762 24.1455 7.87276 23.8561C6.41791 23.5667 5.08153 22.8524 4.03264 21.8035C2.98375 20.7547 2.26944 19.4183 1.98005 17.9634C1.69066 16.5086 1.83919 15.0006 2.40684 13.6301C2.9745 12.2597 3.9358 11.0883 5.16916 10.2642C6.40253 9.44011 7.85258 9.00024 9.33594 9.00024V12.0002C8.44593 12.0002 7.5759 12.2642 6.83587 12.7586C6.09585 13.2531 5.51908 13.9559 5.17848 14.7782C4.83789 15.6004 4.74877 16.5052 4.92241 17.3782C5.09604 18.2511 5.52462 19.0529 6.15396 19.6822C6.7833 20.3116 7.58512 20.7401 8.45804 20.9138C9.33095 21.0874 10.2357 20.9983 11.058 20.6577C11.8803 20.3171 12.5831 19.7403 13.0776 19.0003C13.572 18.2603 13.8359 17.3903 13.8359 16.5002V0.000244141Z" fill="#475569"/>
</g>
<defs>
<clipPath id="clip0_34_1839">
<rect width="24" height="24" fill="white" transform="translate(0.335938 0.000244141)"/>
</clipPath>
</defs>
</svg>
