<svg width="25" height="25" viewBox="0 0 25 25" fill="none" xmlns="http://www.w3.org/2000/svg">
<path d="M15.836 11.157L11.886 7.207C11.7038 7.01839 11.603 6.76579 11.6053 6.50359C11.6076 6.2414 11.7128 5.99058 11.8982 5.80518C12.0836 5.61977 12.3344 5.5146 12.5966 5.51232C12.8588 5.51004 13.1114 5.61084 13.3 5.793L18.957 11.45C19.0502 11.5426 19.1241 11.6528 19.1746 11.7741C19.2251 11.8955 19.251 12.0256 19.251 12.157C19.251 12.2884 19.2251 12.4185 19.1746 12.5398C19.1241 12.6612 19.0502 12.7713 18.957 12.864L13.3 18.521C13.2078 18.6165 13.0974 18.6927 12.9754 18.7451C12.8534 18.7975 12.7222 18.8251 12.5894 18.8262C12.4566 18.8274 12.3249 18.8021 12.202 18.7518C12.0791 18.7015 11.9675 18.6273 11.8736 18.5334C11.7797 18.4395 11.7055 18.3278 11.6552 18.2049C11.6049 18.0821 11.5796 17.9504 11.5807 17.8176C11.5819 17.6848 11.6095 17.5536 11.6619 17.4316C11.7143 17.3096 11.7905 17.1992 11.886 17.107L15.836 13.157H6.25C5.98478 13.157 5.73043 13.0516 5.54289 12.8641C5.35536 12.6766 5.25 12.4222 5.25 12.157C5.25 11.8918 5.35536 11.6374 5.54289 11.4499C5.73043 11.2624 5.98478 11.157 6.25 11.157H15.836V11.157Z" fill="white"/>
</svg>
