<svg width="16" height="16" viewBox="0 0 16 16" fill="none" xmlns="http://www.w3.org/2000/svg">
<path d="M7.99998 13.3334C9.41447 13.3334 10.771 12.7715 11.7712 11.7713C12.7714 10.7711 13.3333 9.41453 13.3333 8.00004C13.3333 6.58555 12.7714 5.229 11.7712 4.2288C10.771 3.22861 9.41447 2.66671 7.99998 2.66671C6.58549 2.66671 5.22894 3.22861 4.22874 4.2288C3.22855 5.229 2.66665 6.58555 2.66665 8.00004C2.66665 9.41453 3.22855 10.7711 4.22874 11.7713C5.22894 12.7715 6.58549 13.3334 7.99998 13.3334V13.3334ZM7.99998 14.6667C4.31798 14.6667 1.33331 11.682 1.33331 8.00004C1.33331 4.31804 4.31798 1.33337 7.99998 1.33337C11.682 1.33337 14.6666 4.31804 14.6666 8.00004C14.6666 11.682 11.682 14.6667 7.99998 14.6667Z" fill="#22C55E"/>
</svg>
