<svg width="17" height="16" viewBox="0 0 17 16" fill="none" xmlns="http://www.w3.org/2000/svg">
<path d="M8.33332 13.3334C9.74781 13.3334 11.1044 12.7715 12.1046 11.7713C13.1048 10.7711 13.6667 9.41453 13.6667 8.00004C13.6667 6.58555 13.1048 5.229 12.1046 4.2288C11.1044 3.22861 9.74781 2.66671 8.33332 2.66671C6.91884 2.66671 5.56228 3.22861 4.56209 4.2288C3.56189 5.229 2.99999 6.58555 2.99999 8.00004C2.99999 9.41453 3.56189 10.7711 4.56209 11.7713C5.56228 12.7715 6.91884 13.3334 8.33332 13.3334V13.3334ZM8.33332 14.6667C4.65132 14.6667 1.66666 11.682 1.66666 8.00004C1.66666 4.31804 4.65132 1.33337 8.33332 1.33337C12.0153 1.33337 15 4.31804 15 8.00004C15 11.682 12.0153 14.6667 8.33332 14.6667Z" fill="#C084FC"/>
</svg>
