<svg width="65" height="65" viewBox="0 0 65 65" fill="none" xmlns="http://www.w3.org/2000/svg">
<path d="M54.1667 34.5C52.9264 34.5018 51.717 34.8871 50.7044 35.6033C49.6917 36.3194 48.9254 37.3312 48.5104 38.5H43.6079L40.0642 27.8675C39.929 27.4624 39.6678 27.1112 39.3186 26.8652C38.9694 26.6193 38.5507 26.4916 38.1238 26.5009C37.6968 26.5101 37.284 26.6557 36.9458 26.9165C36.6076 27.1772 36.3617 27.5394 36.2442 27.95L30.6804 47.42L24.1392 8.17C24.0633 7.71683 23.8337 7.30359 23.489 6.99978C23.1443 6.69597 22.7055 6.52011 22.2464 6.50178C21.7873 6.48344 21.3359 6.62375 20.9681 6.8991C20.6002 7.17446 20.3384 7.56807 20.2267 8.01375L12.6054 38.5H6.16667C5.63624 38.5 5.12753 38.7107 4.75246 39.0858C4.37739 39.4609 4.16667 39.9696 4.16667 40.5C4.16667 41.0304 4.37739 41.5391 4.75246 41.9142C5.12753 42.2893 5.63624 42.5 6.16667 42.5H14.1667C14.6127 42.4999 15.0458 42.3508 15.3973 42.0763C15.7488 41.8018 15.9985 41.4177 16.1067 40.985L21.7742 18.3137L28.1942 56.8288C28.2682 57.2772 28.4927 57.6871 28.8308 57.9909C29.1689 58.2947 29.6004 58.4742 30.0542 58.5C30.0917 58.5 30.1292 58.5 30.1679 58.5C30.6022 58.4996 31.0245 58.358 31.3711 58.0964C31.7177 57.8348 31.9698 57.4675 32.0892 57.05L38.3142 35.265L40.2692 41.1325C40.4019 41.5307 40.6566 41.8771 40.9972 42.1225C41.3377 42.368 41.7469 42.5 42.1667 42.5H48.5104C48.8771 43.5371 49.5218 44.4535 50.3741 45.1489C51.2264 45.8443 52.2535 46.292 53.3431 46.4431C54.4327 46.5942 55.5429 46.4429 56.5522 46.0056C57.5616 45.5684 58.4314 44.862 59.0664 43.9639C59.7015 43.0657 60.0774 42.0102 60.1531 40.9128C60.2287 39.8153 60.0013 38.7183 59.4955 37.7414C58.9898 36.7645 58.2252 35.9455 57.2854 35.3738C56.3456 34.8022 55.2667 34.4999 54.1667 34.5Z" fill="#0891B2"/>
</svg>
