<svg width="25" height="24" viewBox="0 0 25 24" fill="none" xmlns="http://www.w3.org/2000/svg">
<path d="M16.086 10.6571L12.136 6.70713C11.9538 6.51853 11.853 6.26593 11.8553 6.00373C11.8576 5.74153 11.9628 5.49072 12.1482 5.30531C12.3336 5.11991 12.5844 5.01474 12.8466 5.01246C13.1088 5.01018 13.3614 5.11097 13.55 5.29313L19.207 10.9501C19.3002 11.0428 19.3741 11.1529 19.4246 11.2743C19.4751 11.3956 19.501 11.5257 19.501 11.6571C19.501 11.7885 19.4751 11.9187 19.4246 12.04C19.3741 12.1613 19.3002 12.2715 19.207 12.3641L13.55 18.0211C13.4578 18.1166 13.3474 18.1928 13.2254 18.2452C13.1034 18.2976 12.9722 18.3252 12.8394 18.3264C12.7066 18.3275 12.5749 18.3022 12.452 18.252C12.3291 18.2017 12.2175 18.1274 12.1236 18.0335C12.0297 17.9396 11.9555 17.828 11.9052 17.7051C11.8549 17.5822 11.8296 17.4505 11.8307 17.3177C11.8319 17.185 11.8595 17.0537 11.9119 16.9317C11.9643 16.8097 12.0405 16.6994 12.136 16.6071L16.086 12.6571H6.5C6.23478 12.6571 5.98043 12.5518 5.79289 12.3642C5.60536 12.1767 5.5 11.9223 5.5 11.6571C5.5 11.3919 5.60536 11.1376 5.79289 10.95C5.98043 10.7625 6.23478 10.6571 6.5 10.6571H16.086V10.6571Z" fill="white"/>
</svg>
