<svg width="65" height="65" viewBox="0 0 65 65" fill="none" xmlns="http://www.w3.org/2000/svg">
<path d="M31.8175 16.6462L23.3425 8.17125C18.4895 10.0181 14.2946 13.265 11.29 17.5H31.465C31.5638 17.4998 31.6604 17.4704 31.7425 17.4153C31.8246 17.3603 31.8886 17.2822 31.9263 17.1908C31.964 17.0995 31.9738 16.999 31.9545 16.902C31.9351 16.8051 31.8874 16.7161 31.8175 16.6462V16.6462Z" fill="#7C3AED"/>
<path d="M21.465 21.5H8.95376C6.65218 26.4058 5.94617 31.9096 6.93501 37.2375L21.8175 22.3538C21.8874 22.2839 21.9351 22.1949 21.9545 22.098C21.9738 22.001 21.964 21.9005 21.9263 21.8092C21.8886 21.7178 21.8246 21.6397 21.7425 21.5847C21.6604 21.5296 21.5639 21.5002 21.465 21.5Z" fill="#7C3AED"/>
<path d="M43.5 21.465V8.945C38.5925 6.65056 33.0904 5.94778 27.7638 6.935L42.6463 21.8175C42.7161 21.8874 42.8051 21.9351 42.9021 21.9545C42.999 21.9738 43.0995 21.964 43.1908 21.9263C43.2822 21.8886 43.3603 21.8246 43.4154 21.7425C43.4704 21.6604 43.4998 21.5638 43.5 21.465Z" fill="#7C3AED"/>
<path d="M58.065 27.7625L43.1825 42.6462C43.1126 42.7161 43.0649 42.8051 43.0455 42.902C43.0262 42.999 43.036 43.0995 43.0737 43.1908C43.1114 43.2822 43.1754 43.3603 43.2575 43.4153C43.3396 43.4704 43.4362 43.4998 43.535 43.5H56.0462C58.3478 38.5942 59.0538 33.0904 58.065 27.7625V27.7625Z" fill="#7C3AED"/>
<path d="M48.3537 31.8175L56.8325 23.34C54.9906 18.4798 51.7413 14.2792 47.5 11.275V31.465C47.5002 31.5638 47.5296 31.6604 47.5847 31.7425C47.6397 31.8246 47.7178 31.8886 47.8092 31.9263C47.9005 31.964 48.001 31.9738 48.098 31.9544C48.1949 31.9351 48.2839 31.8874 48.3537 31.8175V31.8175Z" fill="#7C3AED"/>
<path d="M28.21 43.2212C28.3962 43.4001 28.6443 43.4999 28.9025 43.5H36.36C36.4926 43.4999 36.6239 43.4735 36.7463 43.4222C36.8686 43.3709 36.9795 43.2958 37.0725 43.2012L43.22 36.9512C43.4044 36.764 43.5077 36.5116 43.5075 36.2487L43.5 28.6475C43.4999 28.5152 43.4736 28.3841 43.4225 28.262C43.3715 28.14 43.2967 28.0292 43.2025 27.9362L36.9525 21.78C36.7649 21.5953 36.512 21.4919 36.2487 21.4925L28.6437 21.5C28.5114 21.5001 28.3804 21.5264 28.2583 21.5774C28.1362 21.6285 28.0255 21.7033 27.9325 21.7975L21.7762 28.0475C21.5915 28.2351 21.4882 28.488 21.4887 28.7512L21.4962 36.3487C21.4963 36.4832 21.5234 36.6162 21.576 36.7399C21.6286 36.8636 21.7057 36.9755 21.8025 37.0687L28.21 43.2212Z" fill="#7C3AED"/>
<path d="M33.1825 48.3537L41.6575 56.8288C46.5105 54.9819 50.7054 51.735 53.71 47.5H33.535C33.4362 47.5002 33.3396 47.5296 33.2575 47.5847C33.1754 47.6397 33.1114 47.7178 33.0737 47.8092C33.036 47.9005 33.0262 48.001 33.0455 48.098C33.0649 48.1949 33.1126 48.2839 33.1825 48.3537V48.3537Z" fill="#7C3AED"/>
<path d="M21.5 43.535V56.055C26.4075 58.3494 31.9096 59.0522 37.2363 58.065L22.3538 43.1825C22.2839 43.1126 22.1949 43.0649 22.098 43.0455C22.001 43.0262 21.9005 43.036 21.8092 43.0737C21.7178 43.1114 21.6397 43.1754 21.5847 43.2575C21.5296 43.3396 21.5002 43.4362 21.5 43.535Z" fill="#7C3AED"/>
<path d="M16.6463 33.1825L8.16751 41.6613C10.0098 46.5209 13.259 50.721 17.5 53.725V33.535C17.4998 33.4362 17.4704 33.3396 17.4154 33.2575C17.3603 33.1754 17.2822 33.1114 17.1908 33.0737C17.0995 33.036 16.999 33.0262 16.9021 33.0455C16.8051 33.0649 16.7161 33.1126 16.6463 33.1825V33.1825Z" fill="#7C3AED"/>
</svg>
