<svg width="25" height="24" viewBox="0 0 25 24" fill="none" xmlns="http://www.w3.org/2000/svg">
<path d="M11.006 15.0972C10.5 17.8232 9.88396 20.4372 8.05596 21.8022C7.49296 17.6822 8.88496 14.5872 9.53096 11.3022C8.42896 9.39225 9.66396 5.54725 11.988 6.49425C14.848 7.66025 9.51096 13.5962 13.094 14.3382C16.835 15.1122 18.363 7.65525 16.043 5.22925C12.691 1.72825 6.28596 5.15025 7.07396 10.1632C7.26596 11.3892 8.49496 11.7612 7.56496 13.4532C5.41996 12.9622 4.77996 11.2202 4.86296 8.89725C4.99496 5.09725 8.17996 2.43525 11.374 2.06725C15.414 1.60125 19.205 3.59425 19.728 7.50725C20.318 11.9232 17.905 16.7072 13.586 16.3622C12.415 16.2692 11.923 15.6722 11.006 15.0972V15.0972Z" fill="#475569"/>
</svg>
