<svg width="65" height="64" viewBox="0 0 65 64" fill="none" xmlns="http://www.w3.org/2000/svg">
<g clip-path="url(#clip0_31_1591)">
<path d="M14 13.3334V56" stroke="#A21CAF" stroke-width="4" stroke-linecap="round" stroke-linejoin="round"/>
<path d="M51.3333 13.3334V37.3334" stroke="#A21CAF" stroke-width="4" stroke-linecap="round" stroke-linejoin="round"/>
<path d="M14 13.3333C16.4924 10.8903 19.8433 9.52185 23.3333 9.52185C26.8234 9.52185 30.1743 10.8903 32.6667 13.3333C35.1591 15.7763 38.51 17.1447 42 17.1447C45.49 17.1447 48.8409 15.7763 51.3333 13.3333" stroke="#A21CAF" stroke-width="4" stroke-linecap="round" stroke-linejoin="round"/>
<path d="M14 37.3333C16.4924 34.8903 19.8433 33.5219 23.3333 33.5219C26.8234 33.5219 30.1743 34.8903 32.6667 37.3333C35.1591 39.7763 38.51 41.1447 42 41.1447C45.49 41.1447 48.8409 39.7763 51.3333 37.3333" stroke="#A21CAF" stroke-width="4" stroke-linecap="round" stroke-linejoin="round"/>
</g>
<defs>
<clipPath id="clip0_31_1591">
<rect width="64" height="64" fill="white" transform="translate(0.666672)"/>
</clipPath>
</defs>
</svg>
