<svg width="97" height="97" viewBox="0 0 97 97" fill="none" xmlns="http://www.w3.org/2000/svg">
<path d="M72.0544 50.5695C72.3352 50.1287 72.5246 49.636 72.6114 49.1207C72.6982 48.6053 72.6806 48.0778 72.5598 47.5693C72.4389 47.0609 72.2172 46.5819 71.9078 46.1607C71.5983 45.7395 71.2075 45.3848 70.7584 45.1175L31.0704 20.9895C30.425 20.5988 29.6848 20.3927 28.9304 20.3935C26.6904 20.3935 24.8784 22.1655 24.8784 24.3535V72.5975C24.8784 73.3375 25.0904 74.0615 25.4904 74.6895C26.6744 76.5455 29.1704 77.1135 31.0704 75.9575L70.7584 51.8335C71.2824 51.5135 71.7304 51.0775 72.0584 50.5655L72.0544 50.5695ZM75.0384 58.5575L35.3544 82.6815C29.6544 86.1495 22.1544 84.4415 18.6104 78.8775C17.4122 77.002 16.7752 74.823 16.7744 72.5975V24.3575C16.7744 17.7935 22.2144 12.4775 28.9344 12.4775C31.2024 12.4775 33.4264 13.0975 35.3544 14.2695L75.0384 38.3975C80.7384 41.8615 82.4864 49.1815 78.9384 54.7495C77.9544 56.2935 76.6184 57.5975 75.0384 58.5575Z" fill="white"/>
</svg>
