<svg width="25" height="24" viewBox="0 0 25 24" fill="none" xmlns="http://www.w3.org/2000/svg">
<path d="M13.65 11.4V6.4C13.65 6.13479 13.5446 5.88043 13.3571 5.69289C13.1696 5.50536 12.9152 5.4 12.65 5.4C12.3848 5.4 12.1304 5.50536 11.9429 5.69289C11.7554 5.88043 11.65 6.13479 11.65 6.4V11.4H6.65C6.38479 11.4 6.13043 11.5054 5.94289 11.6929C5.75536 11.8804 5.65 12.1348 5.65 12.4C5.65 12.6652 5.75536 12.9196 5.94289 13.1071C6.13043 13.2946 6.38479 13.4 6.65 13.4H11.65V18.4C11.65 18.6652 11.7554 18.9196 11.9429 19.1071C12.1304 19.2946 12.3848 19.4 12.65 19.4C12.9152 19.4 13.1696 19.2946 13.3571 19.1071C13.5446 18.9196 13.65 18.6652 13.65 18.4V13.4H18.65C18.9152 13.4 19.1696 13.2946 19.3571 13.1071C19.5446 12.9196 19.65 12.6652 19.65 12.4C19.65 12.1348 19.5446 11.8804 19.3571 11.6929C19.1696 11.5054 18.9152 11.4 18.65 11.4H13.65Z" fill="#2563EB"/>
</svg>
