<svg width="25" height="24" viewBox="0 0 25 24" fill="none" xmlns="http://www.w3.org/2000/svg">
<path d="M20.3609 7.26923H15.3599V6.02723H20.3609V7.26923V7.26923ZM12.0309 12.3632C12.3529 12.8632 12.5139 13.4702 12.5139 14.1822C12.5139 14.9192 12.3319 15.5802 11.9629 16.1642C11.7353 16.5427 11.4369 16.8737 11.0839 17.1392C10.6704 17.4515 10.1908 17.665 9.68194 17.7632C9.10479 17.8783 8.51743 17.9342 7.92894 17.9302H2.33594V5.51123H8.33394C9.84494 5.53623 10.9159 5.97423 11.5499 6.83423C11.9299 7.36223 12.1179 7.99423 12.1179 8.73123C12.1179 9.49023 11.9279 10.0972 11.5439 10.5592C11.3309 10.8182 11.0159 11.0532 10.5989 11.2662C11.2299 11.4972 11.7089 11.8612 12.0299 12.3632H12.0309ZM5.20094 10.4082H7.82794C8.36794 10.4082 8.80494 10.3052 9.14094 10.1002C9.47694 9.89523 9.64494 9.53023 9.64494 9.00823C9.64494 8.43023 9.42294 8.04723 8.97794 7.86223C8.59494 7.73423 8.10594 7.66823 7.51194 7.66823H5.19994V10.4082H5.20094ZM9.89794 14.0052C9.89794 13.3602 9.63394 12.9142 9.10794 12.6752C8.81294 12.5382 8.39794 12.4692 7.86594 12.4642H5.19994V15.7742H7.82594C8.36494 15.7742 8.78194 15.7032 9.08294 15.5562C9.62594 15.2852 9.89894 14.7702 9.89894 14.0052H9.89794ZM22.2159 11.9852C22.2759 12.3912 22.3039 12.9802 22.2929 13.7512H15.8159C15.8519 14.6452 16.1599 15.2702 16.7459 15.6282C17.0989 15.8522 17.5259 15.9622 18.0279 15.9622C18.5559 15.9622 18.9869 15.8282 19.3179 15.5532C19.4989 15.4082 19.6579 15.2032 19.7959 14.9432H22.1699C22.1079 15.4712 21.8219 16.0072 21.3089 16.5512C20.5129 17.4162 19.3969 17.8502 17.9629 17.8502C16.7789 17.8502 15.7349 17.4842 14.8289 16.7552C13.9259 16.0232 13.4729 14.8372 13.4729 13.1912C13.4729 11.6482 13.8799 10.4672 14.6969 9.64523C15.5169 8.82123 16.5749 8.41123 17.8789 8.41123C18.6529 8.41123 19.3489 8.54923 19.9709 8.82723C20.5909 9.10523 21.1029 9.54323 21.5069 10.1442C21.8719 10.6742 22.1069 11.2862 22.2169 11.9842L22.2159 11.9852ZM19.8789 12.2162C19.8359 11.5982 19.6289 11.1302 19.2579 10.8102C18.8889 10.4902 18.4279 10.3292 17.8789 10.3292C17.2809 10.3292 16.8189 10.5012 16.4919 10.8392C16.1619 11.1762 15.9559 11.6352 15.8719 12.2162H19.8789Z" fill="#475569"/>
</svg>
