<svg width="25" height="24" viewBox="0 0 25 24" fill="none" xmlns="http://www.w3.org/2000/svg">
<path d="M13.9 11.4001V6.40012C13.9 6.1349 13.7947 5.88055 13.6071 5.69301C13.4196 5.50547 13.1652 5.40012 12.9 5.40012C12.6348 5.40012 12.3805 5.50547 12.1929 5.69301C12.0054 5.88055 11.9 6.1349 11.9 6.40012V11.4001H6.90002C6.63481 11.4001 6.38045 11.5055 6.19292 11.693C6.00538 11.8805 5.90002 12.1349 5.90002 12.4001C5.90002 12.6653 6.00538 12.9197 6.19292 13.1072C6.38045 13.2948 6.63481 13.4001 6.90002 13.4001H11.9V18.4001C11.9 18.6653 12.0054 18.9197 12.1929 19.1072C12.3805 19.2948 12.6348 19.4001 12.9 19.4001C13.1652 19.4001 13.4196 19.2948 13.6071 19.1072C13.7947 18.9197 13.9 18.6653 13.9 18.4001V13.4001H18.9C19.1652 13.4001 19.4196 13.2948 19.6071 13.1072C19.7947 12.9197 19.9 12.6653 19.9 12.4001C19.9 12.1349 19.7947 11.8805 19.6071 11.693C19.4196 11.5055 19.1652 11.4001 18.9 11.4001H13.9Z" fill="white"/>
</svg>
