<svg width="25" height="25" viewBox="0 0 25 25" fill="none" xmlns="http://www.w3.org/2000/svg">
<path d="M13.65 11.9V6.89999C13.65 6.63478 13.5446 6.38042 13.3571 6.19289C13.1696 6.00535 12.9152 5.89999 12.65 5.89999C12.3848 5.89999 12.1304 6.00535 11.9429 6.19289C11.7554 6.38042 11.65 6.63478 11.65 6.89999V11.9H6.64999C6.38478 11.9 6.13042 12.0054 5.94289 12.1929C5.75535 12.3804 5.64999 12.6348 5.64999 12.9C5.64999 13.1652 5.75535 13.4196 5.94289 13.6071C6.13042 13.7946 6.38478 13.9 6.64999 13.9H11.65V18.9C11.65 19.1652 11.7554 19.4196 11.9429 19.6071C12.1304 19.7946 12.3848 19.9 12.65 19.9C12.9152 19.9 13.1696 19.7946 13.3571 19.6071C13.5446 19.4196 13.65 19.1652 13.65 18.9V13.9H18.65C18.9152 13.9 19.1696 13.7946 19.3571 13.6071C19.5446 13.4196 19.65 13.1652 19.65 12.9C19.65 12.6348 19.5446 12.3804 19.3571 12.1929C19.1696 12.0054 18.9152 11.9 18.65 11.9H13.65Z" fill="#2563EB"/>
</svg>
