<svg width="24" height="25" viewBox="0 0 24 25" fill="none" xmlns="http://www.w3.org/2000/svg">
<path d="M14.738 8.47199L5.7 17.51L5.109 19.526L7.084 18.955L16.152 9.88699L14.738 8.47199ZM16.28 6.92999L17.694 8.34399L19.012 7.02599C19.1057 6.93223 19.1584 6.80508 19.1584 6.67249C19.1584 6.53991 19.1057 6.41276 19.012 6.31899L18.304 5.61199C18.2102 5.51826 18.0831 5.4656 17.9505 5.4656C17.8179 5.4656 17.6908 5.51826 17.597 5.61199L16.281 6.92999H16.28ZM19.719 4.19799L20.426 4.90499C20.8947 5.37381 21.158 6.00958 21.158 6.67249C21.158 7.3354 20.8947 7.97117 20.426 8.43999L8.134 20.733L3.914 21.953C3.74199 22.0026 3.55982 22.0051 3.3865 21.9603C3.21319 21.9154 3.05509 21.8249 2.92871 21.6981C2.80233 21.5713 2.7123 21.4129 2.66803 21.2395C2.62375 21.066 2.62685 20.8838 2.677 20.712L3.925 16.457L16.185 4.19699C16.6538 3.72832 17.2896 3.46503 17.9525 3.46503C18.6154 3.46503 19.2512 3.72832 19.72 4.19699L19.719 4.19799Z" fill="#475569"/>
</svg>
