<svg width="86" height="17" viewBox="0 0 86 17" fill="none" xmlns="http://www.w3.org/2000/svg">
<path d="M28.1401 4.75017C27.2976 4.75215 26.4745 5.00393 25.7751 5.47367C25.0756 5.94341 24.5312 6.61 24.2106 7.38917C23.89 8.16834 23.8076 9.02508 23.9739 9.85105C24.1402 10.677 24.5477 11.4351 25.1449 12.0295C25.7421 12.6239 26.5021 13.0278 27.3288 13.1902C28.1556 13.3527 29.0119 13.2663 29.7896 12.942C30.5672 12.6178 31.2313 12.0702 31.6977 11.3686C32.1642 10.6669 32.4121 9.84271 32.4101 9.00017C32.4183 8.4381 32.3132 7.88014 32.1013 7.35951C31.8893 6.83888 31.5748 6.36622 31.1764 5.96967C30.7779 5.57312 30.3038 5.2608 29.7822 5.05129C29.2606 4.84178 28.7021 4.73938 28.1401 4.75017ZM28.1401 11.5802C27.6237 11.6163 27.1083 11.4962 26.6611 11.2356C26.2138 10.9749 25.8553 10.5857 25.6321 10.1186C25.409 9.65149 25.3315 9.12805 25.4098 8.61632C25.4881 8.10459 25.7185 7.62824 26.0711 7.24921C26.4237 6.87017 26.8821 6.60596 27.3869 6.49094C27.8916 6.37592 28.4193 6.4154 28.9013 6.60425C29.3833 6.7931 29.7973 7.12258 30.0896 7.54987C30.3819 7.97716 30.5388 8.48249 30.5401 9.00017C30.5562 9.32818 30.5065 9.6561 30.3938 9.96459C30.2812 10.2731 30.1079 10.5559 29.8842 10.7963C29.6606 11.0368 29.391 11.23 29.0914 11.3647C28.7919 11.4993 28.4684 11.5726 28.1401 11.5802ZM18.8201 4.75017C17.9776 4.75215 17.1545 5.00393 16.4551 5.47367C15.7556 5.94341 15.2112 6.61 14.8906 7.38917C14.57 8.16834 14.4876 9.02508 14.6539 9.85105C14.8202 10.677 15.2277 11.4351 15.8249 12.0295C16.4221 12.6239 17.1821 13.0278 18.0088 13.1902C18.8356 13.3527 19.6919 13.2663 20.4696 12.942C21.2472 12.6178 21.9113 12.0702 22.3777 11.3686C22.8442 10.6669 23.0921 9.84271 23.0901 9.00017C23.0982 8.4381 22.9932 7.88014 22.7813 7.35951C22.5693 6.83888 22.2548 6.36622 21.8564 5.96967C21.4579 5.57312 20.9838 5.2608 20.4622 5.05129C19.9406 4.84178 19.3821 4.73938 18.8201 4.75017ZM18.8201 11.5802C18.3037 11.6163 17.7883 11.4962 17.3411 11.2356C16.8938 10.9749 16.5353 10.5857 16.3121 10.1186C16.089 9.65149 16.0115 9.12805 16.0898 8.61632C16.1681 8.10459 16.3985 7.62824 16.7511 7.24921C17.1037 6.87017 17.5621 6.60596 18.0669 6.49094C18.5716 6.37592 19.0993 6.4154 19.5813 6.60425C20.0633 6.7931 20.4773 7.12258 20.7696 7.54987C21.0619 7.97716 21.2188 8.48249 21.2201 9.00017C21.2362 9.32818 21.1865 9.6561 21.0738 9.96459C20.9612 10.2731 20.7879 10.5559 20.5642 10.7963C20.3406 11.0368 20.071 11.23 19.7714 11.3647C19.4719 11.4993 19.1484 11.5726 18.8201 11.5802ZM7.7401 6.06017V7.86017H12.0601C11.9924 8.70797 11.6399 9.50796 11.0601 10.1302C10.6268 10.5717 10.1056 10.9173 9.53021 11.1447C8.95487 11.3721 8.3382 11.4761 7.7201 11.4502C6.44706 11.4502 5.22616 10.9445 4.32598 10.0443C3.42581 9.14411 2.9201 7.92321 2.9201 6.65017C2.9201 5.37713 3.42581 4.15623 4.32598 3.25605C5.22616 2.35588 6.44706 1.85017 7.7201 1.85017C8.94055 1.83202 10.119 2.29549 11.0001 3.14017L12.2701 1.87017C11.6741 1.28067 10.9664 0.816057 10.1886 0.503539C9.4107 0.191021 8.57829 0.0368868 7.7401 0.0501662C6.8511 0.0155684 5.96426 0.160794 5.13272 0.477138C4.30119 0.793482 3.54207 1.27443 2.90086 1.89118C2.25964 2.50792 1.74953 3.24776 1.40109 4.06636C1.05265 4.88497 0.873047 5.76549 0.873047 6.65517C0.873047 7.54484 1.05265 8.42536 1.40109 9.24397C1.74953 10.0626 2.25964 10.8024 2.90086 11.4192C3.54207 12.0359 4.30119 12.5169 5.13272 12.8332C5.96426 13.1495 6.8511 13.2948 7.7401 13.2602C8.59552 13.2943 9.44849 13.1472 10.243 12.8283C11.0375 12.5095 11.7556 12.0262 12.3501 11.4102C13.4002 10.2566 13.9598 8.73935 13.9101 7.18017C13.9137 6.80489 13.8836 6.43006 13.8201 6.06017H7.7401ZM53.0501 7.46017C52.7893 6.6929 52.3016 6.02295 51.6516 5.53902C51.0016 5.05508 50.2199 4.77999 49.4101 4.75017C48.8631 4.7491 48.3217 4.86023 47.8193 5.0767C47.317 5.29317 46.8644 5.61037 46.4895 6.0087C46.1146 6.40703 45.8254 6.87802 45.6397 7.39255C45.4541 7.90709 45.3759 8.45423 45.4101 9.00017C45.4016 9.91302 45.6885 10.8041 46.2282 11.5404C46.7679 12.2767 47.5313 12.8187 48.4044 13.0853C49.2774 13.352 50.2134 13.329 51.0723 13.0199C51.9313 12.7107 52.6672 12.132 53.1701 11.3702L51.7201 10.3702C51.5039 10.7304 51.1974 11.028 50.8307 11.2332C50.4641 11.4384 50.0502 11.5442 49.6301 11.5402C49.1967 11.5581 48.768 11.4444 48.4003 11.2142C48.0327 10.984 47.7432 10.6479 47.5701 10.2502L53.2601 7.90017L53.0501 7.46017ZM47.2501 8.88017C47.2298 8.56955 47.2717 8.258 47.3734 7.96378C47.475 7.66956 47.6343 7.39857 47.842 7.16669C48.0497 6.93481 48.3015 6.74669 48.5828 6.61335C48.8641 6.48002 49.1691 6.40414 49.4801 6.39017C49.8023 6.3705 50.1231 6.44636 50.4024 6.60823C50.6817 6.77011 50.907 7.01081 51.0501 7.30017L47.2501 8.88017ZM42.6301 13.0002H44.5001V0.500167H42.6301V13.0002ZM39.5701 5.70017H39.5001C39.2207 5.38203 38.876 5.12797 38.4894 4.95538C38.1028 4.78279 37.6835 4.69573 37.2601 4.70017C36.1673 4.75316 35.1367 5.22459 34.3821 6.01675C33.6274 6.80891 33.2064 7.86107 33.2064 8.95517C33.2064 10.0493 33.6274 11.1014 34.3821 11.8936C35.1367 12.6857 36.1673 13.1572 37.2601 13.2102C37.6841 13.2187 38.1047 13.1334 38.4919 12.9606C38.8791 12.7877 39.2234 12.5315 39.5001 12.2102H39.5701V12.8202C39.5701 14.4502 38.7001 15.3202 37.3001 15.3202C36.8324 15.3099 36.3783 15.1609 35.9955 14.892C35.6127 14.6232 35.3185 14.2466 35.1501 13.8102L33.5301 14.4802C33.8296 15.2324 34.3504 15.8761 35.0235 16.326C35.6966 16.776 36.4905 17.011 37.3001 17.0002C39.4901 17.0002 41.3001 15.7102 41.3001 12.5702V5.00017H39.5701V5.70017ZM37.4201 11.5802C36.7649 11.5393 36.1499 11.2502 35.7004 10.7718C35.2509 10.2934 35.0006 9.66163 35.0006 9.00517C35.0006 8.3487 35.2509 7.71692 35.7004 7.23851C36.1499 6.76009 36.7649 6.47102 37.4201 6.43017C37.7403 6.44399 38.0545 6.52208 38.344 6.6598C38.6334 6.79753 38.8922 6.99206 39.1049 7.23184C39.3176 7.47162 39.4799 7.75174 39.5822 8.05553C39.6844 8.35931 39.7245 8.68056 39.7001 9.00017C39.7274 9.32086 39.6893 9.64375 39.5883 9.94932C39.4872 10.2549 39.3252 10.5368 39.1121 10.778C38.8989 11.0191 38.6391 11.2146 38.3483 11.3525C38.0575 11.4903 37.7417 11.5678 37.4201 11.5802ZM61.8101 0.500167H57.3301V13.0002H59.2001V8.26017H61.8101C62.3431 8.29845 62.8782 8.22654 63.3821 8.0489C63.886 7.87125 64.348 7.5917 64.7391 7.22766C65.1302 6.86362 65.4422 6.42291 65.6555 5.933C65.8688 5.44309 65.9788 4.91449 65.9788 4.38017C65.9788 3.84584 65.8688 3.31724 65.6555 2.82733C65.4422 2.33743 65.1302 1.89671 64.7391 1.53267C64.348 1.16864 63.886 0.889082 63.3821 0.71144C62.8782 0.533798 62.3431 0.461879 61.8101 0.500167ZM61.8101 6.50017H59.2001V2.24017H61.8501C62.1311 2.24017 62.4094 2.29552 62.669 2.40306C62.9287 2.51061 63.1646 2.66824 63.3633 2.86696C63.562 3.06568 63.7197 3.30159 63.8272 3.56122C63.9347 3.82086 63.9901 4.09914 63.9901 4.38017C63.9901 4.66119 63.9347 4.93947 63.8272 5.19911C63.7197 5.45875 63.562 5.69466 63.3633 5.89337C63.1646 6.09209 62.9287 6.24972 62.669 6.35727C62.4094 6.46481 62.1311 6.52017 61.8501 6.52017L61.8101 6.50017ZM73.3501 4.71017C72.6691 4.66818 71.9907 4.82672 71.3989 5.16618C70.8071 5.50565 70.3277 6.01115 70.0201 6.62017L71.6701 7.31017C71.8368 7.00957 72.087 6.76368 72.3905 6.60219C72.6939 6.44071 73.0376 6.37054 73.3801 6.40017C73.6175 6.37244 73.858 6.39227 74.0877 6.45849C74.3173 6.52471 74.5315 6.63601 74.7176 6.78588C74.9038 6.93575 75.0583 7.12119 75.172 7.33139C75.2857 7.54159 75.3565 7.77234 75.3801 8.01017V8.13017C74.7788 7.81408 74.1095 7.64933 73.4301 7.65017C71.6501 7.65017 69.8301 8.65017 69.8301 10.4702C69.8477 10.857 69.9429 11.2364 70.11 11.5857C70.277 11.9351 70.5126 12.2473 70.8027 12.5038C71.0928 12.7603 71.4315 12.9559 71.7987 13.079C72.1659 13.202 72.554 13.25 72.9401 13.2202C73.4094 13.2461 73.8771 13.1468 74.2953 12.9324C74.7135 12.718 75.0672 12.3963 75.3201 12.0002H75.3801V13.0002H77.1801V8.19017C77.1801 6.00017 75.5201 4.73017 73.3901 4.73017L73.3501 4.71017ZM73.1201 11.5602C72.5101 11.5602 71.6601 11.2502 71.6601 10.5002C71.6601 9.50017 72.7201 9.16017 73.6601 9.16017C74.2541 9.14551 74.8412 9.29056 75.3601 9.58017C75.2973 10.1232 75.0398 10.6251 74.6353 10.9929C74.2308 11.3606 73.7067 11.5693 73.1601 11.5802L73.1201 11.5602ZM83.7401 5.00017L81.6001 10.4202H81.5401L79.3201 5.00017H77.3201L80.6501 12.5802L78.7501 16.7902H80.7001L85.8201 5.00017H83.7401ZM66.9401 13.0002H68.8001V0.500167H66.9401V13.0002Z" fill="white"/>
</svg>
