<svg width="135" height="40" viewBox="0 0 135 40" fill="none" xmlns="http://www.w3.org/2000/svg">
<path d="M130 0.800244C131.114 0.800244 132.182 1.24274 132.97 2.0304C133.758 2.81805 134.2 3.88633 134.2 5.00024V35.0002C134.2 36.1142 133.758 37.1824 132.97 37.9701C132.182 38.7577 131.114 39.2002 130 39.2002H5C3.88609 39.2002 2.8178 38.7577 2.03015 37.9701C1.2425 37.1824 0.8 36.1142 0.8 35.0002V5.00024C0.8 3.88633 1.2425 2.81805 2.03015 2.0304C2.8178 1.24274 3.88609 0.800244 5 0.800244H130ZM130 0.000244141H5C3.67392 0.000244141 2.40215 0.527028 1.46447 1.46471C0.526784 2.40239 0 3.67416 0 5.00024V35.0002C0 36.3263 0.526784 37.5981 1.46447 38.5358C2.40215 39.4735 3.67392 40.0002 5 40.0002H130C131.326 40.0002 132.598 39.4735 133.536 38.5358C134.473 37.5981 135 36.3263 135 35.0002V5.00024C135 3.67416 134.473 2.40239 133.536 1.46471C132.598 0.527028 131.326 0.000244141 130 0.000244141Z" fill="#A6A6A6"/>
</svg>
